/* XPM */
static char *b748bc9d14f94c3caa7ce25b94d173a7ZCBAXAaUcFX4xmBM[] = {
/* columns rows colors chars-per-pixel */
"64 64 141 2 ",
"   c #668F4C",
".  c #66914C",
"X  c #6A944D",
"o  c #6D984F",
"O  c #749E4F",
"+  c #6C9451",
"@  c #6E9950",
"#  c #739C52",
"$  c #75A04F",
"%  c #76A152",
"&  c #7BA553",
"*  c #7EA852",
"=  c #7DA55A",
"-  c #82AC55",
";  c #82A75D",
":  c #84AD5A",
">  c #89AF5D",
",  c #87B25B",
"<  c #89B25D",
"1  c #89B35D",
"2  c #88B35C",
"3  c #8AB35D",
"4  c #89B15E",
"5  c #89B15F",
"6  c #89B25F",
"7  c #8AB35E",
"8  c #8AB25F",
"9  c #8AB35F",
"0  c #88B15D",
"q  c #8CB35E",
"w  c #8AB45D",
"e  c #8AB45E",
"r  c #8DB45F",
"t  c #8CB55F",
"y  c #89B35D",
"u  c #87AC60",
"i  c #88AE60",
"p  c #89AF61",
"a  c #8AAF62",
"s  c #89AD64",
"d  c #89AE62",
"f  c #8BB260",
"g  c #8BB360",
"h  c #8BB361",
"j  c #8CB361",
"k  c #8CB460",
"l  c #8DB460",
"z  c #8DB560",
"x  c #8CB461",
"c  c #8DB461",
"v  c #8EB460",
"b  c #8EB560",
"n  c #8EB660",
"m  c #8EB661",
"M  c #8EB761",
"N  c #8FB761",
"B  c #8DB462",
"V  c #8EB562",
"C  c #8CB266",
"Z  c #8DB666",
"A  c #8DB461",
"S  c #91B563",
"D  c #90B662",
"F  c #91B663",
"G  c #91B764",
"H  c #93B665",
"J  c #92B766",
"K  c #91B664",
"L  c #90B863",
"P  c #91B863",
"I  c #92B964",
"U  c #92B865",
"Y  c #93B865",
"T  c #92B965",
"R  c #93B867",
"E  c #94B966",
"W  c #95BA67",
"Q  c #93B965",
"!  c #91B568",
"~  c #94B868",
"^  c #94B968",
"/  c #95B968",
"(  c #95BA68",
")  c #97BB68",
"_  c #96BA6A",
"`  c #97BC68",
"'  c #97BC69",
"]  c #96BA69",
"[  c #98BC69",
"{  c #99BD6A",
"}  c #99BD6B",
"|  c #9ABC6B",
" . c #9ABD6B",
".. c #9BBD6B",
"X. c #99BA6C",
"o. c #99BD6C",
"O. c #9ABC6C",
"+. c #9BBC6C",
"@. c #9ABD6C",
"#. c #9BBD6C",
"$. c #9ABE6C",
"%. c #9BBE6C",
"&. c #9BBE6D",
"*. c #9BBF6D",
"=. c #9BBD6E",
"-. c #9CBE6C",
";. c #9CBF6C",
":. c #9CBE6D",
">. c #9CBF6D",
",. c #9CBE6F",
"<. c #9DBE6F",
"1. c #9BBE6C",
"2. c #93B970",
"3. c #9DBF70",
"4. c #9EBF70",
"5. c #9EBF71",
"6. c #9EBF70",
"7. c #99C06F",
"8. c #9EC071",
"9. c #9FC071",
"0. c #9EC171",
"q. c #9FC072",
"w. c #9EC174",
"e. c #9FC276",
"r. c #9EC073",
"t. c #A0C173",
"y. c #A0C373",
"u. c #A0C374",
"i. c #A0C277",
"p. c #A1C376",
"a. c #A2C378",
"s. c #A2C47A",
"d. c #A3C47B",
"f. c #A3C47A",
"g. c #A5C97D",
"h. c #A8C681",
"j. c #A7CB80",
"k. c #A9CC82",
"l. c #A9CD82",
"z. c #AACD82",
"x. c #A9CC82",
/* pixels */
". . . : , , , , , , - . . . # , , , P &.[ 4.Y j 2 , ~ &.&.&.2 , , : . . . # &.&.&.&.&.&.>.N , , , , , , , X . . X &.&.&.&.&.&.&.",
". . . : , , , , , , - . . . # , , , P &.&.&.~ : , , [ &.&.&.2 , , : . . . # &.&.>.&.&.&.>.N , , , , , , , X . . X &.&.&.&.&.&.&.",
". . . : , , , 2 2 2 - . . . # , , , P &.&.[ J , , , ' &.&.&.2 , , : . . . # &.&.&.&.&.&.&.N , , , , , , , X . . X &.&.&.&.&.&.&.",
", , , [ &.&.&.s.s.s.i.&.&.[ D * * * - 2 2 2 , , , , ' &.&.&.- * * * , , , , 2 2 2 : - * * O . . . & * * * * * * & X X X o * * * ",
", , , [ &.&.>.s.s.s.a.&.&.&.Y * * * - , , , , , , , [ &.&.&.- * * * , , , , , , , - = & = o . . . & * * * * * * & . . . X * * * ",
", , , [ &.&.>.s.s.s.a.&.&.&.Y * * * - , , , , , , , [ &.&.&.- * * * , , , , , , , - & - - # . . . & * * * * * * & . . . X * * * ",
", , , J ~ ~ ~ e.i.i.e.[ [ [ D * * * - , , , : : : : E [ [ [ - - - - , , , , , , , - * % * # @ # @ & - - * & & & & o X X O - - - ",
", , , o . . . , , , , , , , , * * * - , , , # . . . - , , , , , , , , , , , * & & # @ + . s &.&.>.r , , , X . . X , , , , , , , ",
", , , o . . . , , , , , , , : * * * - , , , # . . . : , , , , , , , , , , : & & - # + . . s &.&.>.r , , , X . . X , , , , , , , ",
", , , o . . . , , , , 2 2 , : * * * - , , , # . . . - , , , , , , , , , , : = - - # . . . s &.&.>.r , , , X . . X , , , , , , , ",
"N N N % # # # , , , : 2 2 2 : - - - = = = * % % % % 2 N N N 2 , , 2 N N N N * - - # . . . C y.y.i.Y N N N % # # # N N N N N N N ",
"&.&.&.e , , , , , , , * - - - , , , & . . . > &.&.&.&.&.&.&.2 , , e &.[ [ ~ - - & O . . . 2.k.k.k.8.&.&.[ 2 , , 2 >.&.&.&.&.8.4.",
">.&.&.e , , , , , 2 2 - - & - , , , & . . . > &.&.&.&.&.&.&.2 , , e &.&.>.D = = & O . . . 2.k.k.k.8.&.&.[ 2 , , 2 >.&.&.[ &.>.y.",
">.&.&.e , , , , 2 h 2 * & & - , , , & . . . > &.&.&.&.&.&.&.2 , , 2 [ 4.8.J & & * O . . . 2.k.k.k.8.&.&.[ e , , 2 >.&.&.[ 4.X.>.",
"N N N 2 , , 2 h 2 h 2 - - - - - - - % . . . * r r r P Y Y Y 2 , 2 N 8.4.8.~ - - - = % % % Z 7.7.7.D r r q : - - - ; ; ; s ~ ~ Y ",
"* * * , , 2 2 2 h 2 , , , , , * * * O . . . O * * * , , , , , , : N &.4.&.E , , , , , , , , , , , - * * * * * * & . + + # h : , ",
"* * * , , , h 2 2 , , , , , , * * * O . . . O * * * , , , , , , N N 4.>.[ E , , , , , , , , , , , - * * * * * & & + + + # 2 , , ",
"* * * : 2 2 : h , , , , , , , * * * O . . . O * * * , , , , k 2 h N &.&.>.E , , , , , , , , 2 2 , - * * * * * & = @ @ + @ , , , ",
": : - D X.~ E &.&.&.~ , , , , : : : : u u u : : : : , , , : ~ ~ ~ J % = = % # # # = , , , D E E E , : : : : : - - . @ . # E E E ",
", h h &.4.4.>.s.s.s.e.2 , , , , , , P &.&.>.N , , , , , N 2 >.4.>.~ . . . . . . . % , , , E &.&.>.r , , , , 2 N > . . . # &.&.&.",
", , N | >.[ >.s.s.s.e.2 , , , , , , P &.&.&.N , , , , , h h 4.&.[ ~ . . . . . . . % , , , E &.&.>.r , , , , 2 N 2 . . . # &.&.&.",
"2 h h >.&.&.>.s.s.s.e.2 , , , , , , P &.&.&.N , , , , , 2 k | [ >.~ . . . . . . . % , , , E &.&.>.r , , h j h 2 : . . . # &.&.&.",
"2 2 h # # # # 8.8.8.&.2 , , , - - - q &.&.&.2 - - - # @ @ # 2 N N N C C C > % % % # @ @ @ : N N r E E ~ | &.&.~ E % % % * N N N ",
"N 2 , X . . X &.&.&.| 2 , , : * * * 2 &.&.>.2 * * * o . . . , , , e &.&.&.Y * * * O . . . = , , , [ >.4.X.4.&.[ [ * * * - , , , ",
"h , , o . . X >.&.&.[ 2 , , : * * * 2 &.&.>.2 * * * o . . . , , , e &.&.&.Y * * * O . . . = , , , ~ 8.4.4.>.[ &.[ * * * - , , , ",
", , , o . . . &.&.&.[ 2 , , : * * * 2 &.&.>.2 * * * o . . . , , , e &.&.&.J * * * O . . . = , , , ~ >.8.&.[ &.&.[ * * * - , , , ",
"[ [ [ @ . . . 2 2 2 , * * * h g.g.g.p.&.&.&.[ [ [ [ ~ ~ ~ ~ 2 , , , 2 2 2 , * * * 2 ~ ~ ~ e.a.a.d.8.4.>.[ r 2 2 2 , , , e [ [ [ ",
"&.&.&.@ . . . , , , , * * * h k.k.k.s.&.&.&.&.&.&.&.&.&.&.&.2 , , , , , , : * * * q &.&.&.i.s.a.h.4.&.[ [ e , , , , , , r &.&.&.",
">.&.&.@ . . . , , , , * * * h k.k.k.s.&.[ &.&.&.&.&.&.&.&.&.2 , , , , , , : * * * q &.&.&.i.s.s.d.>.[ &.[ e , , , , , , r &.&.[ ",
"[ [ [ # X X X 2 2 2 , - - - N j.j.j.a.X.~ ~ | [ [ [ [ [ [ [ 2 , , , , , , - & & & 2 [ [ [ i.a.a.a.>.&.&.[ 2 : : , , , , e &.&.&.",
", , , , , , 2 &.&.&.&.&.&.&.&.&.[ &.s + + . $ * * * * * * * , , , , * * * % . . . % , , , E &.&.&.&.&.&.[ @ . . . * * * : &.&.&.",
", , , , , , 2 >.&.&.&.&.&.&.&.[ [ 4.; + . . $ * * * * * * * , , , , * * * % . . . % , , , E &.&.&.&.&.&.[ @ . . X * * * : >.&.&.",
", , , , , , 2 >.&.&.&.&.&.&.[ &.4.4.s . . . $ * * * * * * * , , , , * * * % . . . % , , , E &.&.&.&.&.&.[ @ . . X * * * : >.&.&.",
"N N N N N N N Y Y Y J C j j C ! C ! = . . . % - - - : : : : r N N r - - - & # # # % = = = N E E E C C C h % # # # * * * - C j j ",
"&.&.&.&.&.&.[ * * * & . . + + . + . . . . . & , , , ' &.&.&.&.&.&.[ , , , , , , , % . . . = , , , o . . X ~ &.&.[ * * * & . . . ",
">.&.&.&.&.&.[ * * * & . @ + + @ . . . . . . & , , , [ &.&.&.&.&.&.[ , , , 2 , 2 , % . . . = , , , o . . X ~ &.&.[ * * * & . . . ",
">.&.&.&.&.&.[ * * * % . . . @ . . . . . . . & , , , [ &.&.&.&.&.&.[ , , , 2 h 2 2 % . . . * , , , o . . X ~ &.&.[ * * * & . . + ",
"Y Y Y i.p.p.p.q q 2 > ; = = = . . . # = = = : , , , > : : : : : : : - - - 2 Y ~ J : % % % : , , , - = = ; q N N r - - - = % # % ",
", , , g.k.k.k.&.[ X.>.4.4.&.h . . . = &.&.>.D , , 2 @ . . . . . . X & & * > 4.&.[ Y , , , , , , , [ &.&.[ - * * * , , , , , 2 : ",
", , , g.k.k.j.&.8.4.4.4.>.[ h . . . = &.&.>.D , , 2 @ . . . . . . X & - - > >.[ &.Y , , , , , , , [ &.&.[ - * * * , , , , 2 N 2 ",
", , , g.k.k.j.&.>.4.4.&.[ >.j . . . = >.>.>.D , , , @ . . . . . . @ - - - : &.>.&.Y , , , , , , , [ >.>.[ - * * * , , 2 2 h N 2 ",
"- - - Y ^ ~ ^ Y J J N N N N , % % % % = = % = - - - = * * * * * = = ~ J D D N N N e , , , , , , , , , , , * * * & # # # = 2 , , ",
"* * * , , , N h h 2 , , , , , * * * O . . . O * * * , , , , , : N N 4.&.[ E , , , , , , , , , , , - * * * * * & & . + @ # e , , ",
"* * & : : 2 > N : , , , , , , * * * O . . . O * * * , , , : 2 , : N >.[ &.~ , , , , , , , , , , , - * * * * * & * + @ . @ , , , ",
"* * & 2 k 2 N 2 , , , , , , : * * * O . . . O * * * , , , : N N , 2 &.&.&.E , , , , , , , , 2 2 , - * * * * & & * @ + + o , 2 2 ",
", , : E >.X.| e.e.e.&.2 , , , , , , 2 J J J 2 , , , , 2 2 N &.>.| J # # # @ o o o & , , , Y [ [ [ 2 , , , : 2 : > + + . # [ [ [ ",
", , , | 4.[ &.s.s.s.e.2 , , , , , , P &.&.&.N , , , , , N > >.&.[ ~ . . . . . . . % , , , E &.&.>.r , , , , h j h . . . # &.[ &.",
", , , [ [ [ >.s.s.s.e.2 , , , , , , P &.&.&.N , , , , N h N &.[ &.~ . . . . . . . % , , , E &.&.>.r , , , , 2 N : . . . # &.[ &.",
", , , ~ | | [ s.s.s.8.2 , , , , , , P &.&.&.N , , N , > 2 : [ [ [ E X X X X . . . % , , , Y [ [ &.r 2 2 2 2 2 2 : . . . # &.[ [ ",
", , , @ X X @ >.>.>.[ 2 , , , * * * 2 &.&.>.2 & & - # @ . . , 2 2 e | ~ ~ N & & & O X X X = 2 2 2 ' [ [ [ [ [ [ [ & & & = 2 e e ",
", , , o . . X &.&.&.| 2 , , : * * * 2 &.&.>.2 - & - # . . . , , , e &.&.&.Y * * * O . . . = , , , ' &.&.&.&.&.&.[ * * * - , , , ",
", , , o . . X >.&.&.[ 2 , , : * * * 2 &.&.>.> - - - o . . . , , , e &.&.&.Y * * * O . . . = , , , [ &.&.&.&.&.&.[ * * * - , , , ",
"e e e o . . . [ [ [ E , , , , : : : D &.&.>.q : : - # # # # , , , e [ [ [ D * * * % # # # : N N N [ &.&.&.[ [ [ E - - - - e e e ",
">.>.>.@ . . . , , , , * * * h k.k.k.s.&.&.&.&.&.>.[ &.&.&.&.2 , , , , , , : * * * q &.&.&.i.d.s.s.>.&.&.[ e , , , , , , r >.>.>.",
">.&.&.@ . . . , , , , * * * h k.k.k.s.&.&.&.&.&.&.&.&.&.&.&.2 , , , , , , : * * * q &.&.[ i.s.s.s.>.&.&.[ e , , , , , , r &.&.&.",
">.&.&.@ . . . , , , , * * * h k.k.k.s.&.&.&.&.&.&.&.&.&.&.&.2 , , , , , , : * * * q &.&.>.a.a.s.s.>.&.&.[ e , , , , , , r &.&.&.",
"E E E % # # # N N N r , , , J g.g.g.3.s s s N J J J J J J J 2 , , , : : : - % % % : E E ~ i.d.i.i.>.&.&.[ - = * = : : : 2 &.&.&.",
", , , , , , 2 &.>.>.&.&.&.&.&.&.&.&.: . . . $ * * * * * * * , , , , * * * % . . . % , 2 2 ~ >.[ &.&.&.&.[ @ . . . * * * : &.&.&.",
", , , , , , 2 >.&.&.&.&.&.&.&.&.&.>.: . . . $ * * * * * * * , , , , * * * % . . . % 2 h N ~ [ &.&.&.&.&.[ @ . . X * * * : >.&.&.",
", , , , , , 2 >.&.&.&.&.[ [ [ &.&.>.: . . . $ * * * * * * * , , , , * * * % . . . % 2 N , E [ &.&.&.&.&.[ @ . . X * * * : >.[ &.",
"P P P P P P P N N N j : s : u : : : % . . . % - - - 2 q q q D P P N - - - = # % = % = = % h Y Y Y > ; ; ; = = = = * * * = : : : ",
"&.&.&.&.&.&.[ * * * & . . @ + + . . . . . . & , , , ' &.&.&.&.&.&.[ , , , , 2 2 2 = + . . = , , , o . . X ~ &.&.[ * * * & . . . ",
">.&.&.&.&.&.[ * * * % . @   @   . . . . . . & , , , [ &.&.&.&.&.&.[ , , , , , 2 2 % . . . = , , , o . . X ~ &.&.[ * * * & . . + ",
">.&.&.&.&.&.[ * * & % + @ @ . . . . . . . . & , , , ' &.&.&.&.&.&.[ , , , 2 2 , 2 % . . . = , , , o . . X ~ &.&.[ * * * & . . + "
};
