/* XPM */
static char *result[] = {
/* columns rows colors chars-per-pixel */
"64 64 189 2 ",
"   c #000101",
".  c #070909",
"X  c #0B0C0C",
"o  c #0A0906",
"O  c #110F0B",
"+  c #13110D",
"@  c #0C0F10",
"#  c #0E1112",
"$  c #131414",
"%  c #181715",
"&  c #1C1917",
"*  c #131719",
"=  c #151A1C",
"-  c #1A1B1B",
";  c #0F120F",
":  c #231B0F",
">  c #261E11",
",  c #211E1B",
"<  c #16201F",
"1  c #24211E",
"2  c #2D2414",
"3  c #3B2F1A",
"4  c #3E311B",
"5  c #181E21",
"6  c #1B2123",
"7  c #1F272A",
"8  c #1A2624",
"9  c #242322",
"0  c #292522",
"q  c #2D2926",
"w  c #222A2C",
"e  c #2B2C2D",
"r  c #212828",
"t  c #312C29",
"y  c #2F302F",
"u  c #37322D",
"i  c #38332E",
"p  c #252E32",
"a  c #2F2F31",
"s  c #273836",
"d  c #2B363A",
"f  c #2E393D",
"g  c #2A3134",
"h  c #3B3631",
"j  c #34393B",
"k  c #3A3B3B",
"l  c #3C3B34",
"z  c #41331C",
"x  c #4B3B21",
"c  c #413B35",
"v  c #453E39",
"b  c #2D403D",
"n  c #564426",
"m  c #4A433D",
"M  c #47413B",
"N  c #6B552F",
"B  c #6E5730",
"V  c #313D42",
"C  c #38454A",
"Z  c #3D4C52",
"A  c #434444",
"S  c #4B4C4C",
"D  c #4A4845",
"F  c #534C45",
"G  c #574F48",
"H  c #4D554D",
"J  c #5C544C",
"K  c #51504F",
"L  c #405057",
"P  c #4E5151",
"I  c #44555C",
"U  c #47585F",
"Y  c #5A5C5B",
"T  c #545757",
"R  c #404F55",
"E  c #635A52",
"W  c #685E56",
"Q  c #60574F",
"!  c #5F6E5B",
"~  c #6D635A",
"^  c #70665D",
"/  c #4A5C63",
"(  c #4C6668",
")  c #52656D",
"_  c #5A6F79",
"`  c #566A73",
"'  c #5E747E",
"]  c #557A74",
"[  c #656666",
"{  c #676B6A",
"}  c #756B61",
"|  c #796E64",
" . c #7C7166",
".. c #7C736A",
"X. c #6D7271",
"o. c #7B7D7D",
"O. c #777877",
"+. c #80756A",
"@. c #85796E",
"#. c #8A7D72",
"$. c #877B70",
"%. c #88817A",
"&. c #928479",
"*. c #97897D",
"=. c #94877B",
"-. c #5F7680",
";. c #637B85",
":. c #637B85",
">. c #68818C",
",. c #6E8893",
"<. c #708B97",
"1. c #738E9A",
"2. c #75919D",
"3. c #7B8080",
"4. c #7996A2",
"5. c #7B99A6",
"6. c #7F9DAA",
"7. c #7DB4AC",
"8. c #8B8B8B",
"9. c #838787",
"0. c #9C8E81",
"q. c #908E8C",
"w. c #889688",
"e. c #9A9187",
"r. c #929594",
"t. c #9A9A9A",
"y. c #8C9191",
"u. c #A39487",
"i. c #AA9B8D",
"p. c #A59689",
"a. c #9CB696",
"s. c #B4A394",
"d. c #BDAC9C",
"f. c #B7A798",
"g. c #809FAC",
"h. c #82A1AF",
"j. c #9CA3A2",
"k. c #84A4B2",
"l. c #88A8B6",
"z. c #8AABB9",
"x. c #87A8B6",
"c. c #8EB0BF",
"v. c #82BBB2",
"b. c #A4A7A7",
"n. c #A9ACAC",
"m. c #B3BBBA",
"M. c #BEBEBE",
"N. c #B4B7B7",
"B. c #C1AF9F",
"V. c #C5B3A3",
"C. c #CAB7A7",
"Z. c #CDBAA9",
"A. c #D1BEAD",
"S. c #C1AFA0",
"D. c #86C0B8",
"F. c #D3C0AF",
"G. c #D6C3B1",
"H. c #DAC6B4",
"J. c #DCC8B6",
"K. c #93B6C5",
"L. c #95B8C7",
"P. c #96BAC9",
"I. c #99BECE",
"U. c #8FB1C0",
"Y. c #9DC2D2",
"T. c #99DBD2",
"R. c #98CBCE",
"E. c #A0C6D7",
"W. c #A3CADA",
"Q. c #9DE1D7",
"!. c #A7CFE0",
"~. c #AAD3E4",
"^. c #AED7E9",
"/. c #AED8EA",
"(. c #B0DAEC",
"). c #C8CACA",
"_. c #CBD4D3",
"`. c #D5DCDB",
"'. c #D9E3E2",
"]. c #E4EDEC",
"[. c #EBEBEB",
"{. c #E5E5E5",
"}. c #EEF8F7",
"|. c #EFF9F8",
" X c #EBF5F4",
".X c #F4F4F4",
"XX c #FEFEFE",
"oX c #E6F0EF",
"OX c None",
/* pixels */
"OXOXOXOXOXOXOXOXOXOXOXOXOXOXOXOXOXOXOXOXOXOXOXOXOXOXOXOXOXOXOXOXOXOXOXOXOXOXOXOXOXOXOXOXOXOXOXOXOXOXOXOXOXOXOXOXOXOXOXOXOXOXOXOX",
"OXOXOXOXOXOXOXOXOXOXOXOXOXOXOXOXOXOXOXOXOXOXOXOXOXOX    OXOXOXOXOXOXOXOXOXOXOXOXOXOXOXOXOXOXOXOXOXOXOXOXOXOXOXOXOXOXOXOXOXOXOXOX",
"OXOXOXOXOXOXOXOXOXOXOXOXOXOXOXOXOXOXOXOXOXOXOXOXOX        OXOXOXOXOXOXOXOXOXOXOXOXOXOX    OXOXOXOXOXOXOXOXOXOXOXOXOXOXOXOXOXOXOX",
"OXOXOXOXOXOXOXOXOXOXOXOXOXOXOXOXOXOXOXOXOXOXOXOXOX  C V   OXOXOXOXOXOXOXOXOXOXOXOXOX  .     OXOXOXOXOXOXOXOXOXOXOXOXOXOXOXOXOXOX",
"OXOXOXOXOXOXOXOXOXOXOXOXOXOXOXOXOXOXOXOXOXOXOXOXOX  ;.K..   OXOXOXOXOXOXOXOXOXOXOX    )     OXOXOXOXOXOXOXOXOXOXOXOXOXOXOXOXOXOX",
"OXOXOXOXOXOXOXOXOXOXOXOXOXOXOXOXOXOXOXOXOXOXOXOXOX  g.(.'     OXOXOXOXOXOXOXOXOX  . ' k.  OXOXOXOXOXOXOXOXOXOXOXOXOXOXOXOXOXOXOX",
"OXOXOXOXOXOXOXOXOXOXOXOXOXOXOXOXOXOXOXOXOXOXOXOX    L.(.!.C   OXOXOXOXOXOXOXOX    ) ~.4.  OXOXOXOXOXOXOXOXOXOXOXOXOXOXOXOXOXOXOX",
"OXOXOXOXOXOXOXOXOXOXOXOXOXOXOXOXOXOXOXOXOXOXOXOX    ~.(.(.K.    OXOXOXOXOX    X ;.~.(._   OXOXOXOXOXOXOXOXOXOXOXOXOXOXOXOXOXOXOX",
"OXOXOXOXOXOXOXOXOXOXOX      OXOXOXOXOXOXOXOXOXOX  w (.(.(.(.<..   OXOXOX    p I.(.(.(.I   OXOXOXOXOXOXOXOXOXOXOXOXOXOXOXOXOXOXOX",
"OXOXOXOXOXOXOXOXOXOXOX  =       OXOXOXOXOXOXOXOX  I (.(.(.(.~.C   OXOX    V W./.(.(.(.C   OXOXOXOXOXOXOXOXOXOXOXOXOXOXOXOXOXOXOX",
"OXOXOXOXOXOXOXOXOXOXOX  w I.( X       OXOXOXOX    5.(.(.(.(.(.g..       p ~.(.(.(.(.(.C   OXOXOXOXOXOXOXOXOXOXOXOXOXOXOXOXOXOXOX",
"OXOXOXOXOXOXOXOXOXOXOX    5.(.P.) =       OXOX  . I.(.(.(.(.(.^.d     f W.(.(.(.(.(./.w   OXOXOXOXOXOXOXOXOXOXOXOXOXOXOXOXOXOXOX",
"OXOXOXOXOXOXOXOXOXOXOXOX  f /.(.(.(.K.U *       5 ~.(.(.(.(.(.(.)   f ~.(.(.(.(.(.(.E.5   OXOXOXOXOXOXOXOXOXOXOXOXOXOXOXOXOXOXOX",
"OXOXOXOXOXOXOXOXOXOXOXOX  . P.(.(.(.(.(.W.:.*   w (.(.(.(.(.(.(.I./ Y.(.(.(.(.(.(.(.W.5   OXOXOXOXOXOX        OXOXOXOXOXOXOXOXOX",
"OXOXOXOXOXOXOXOXOXOXOXOXOX  -.(.(.(.(.(.(.(.W./ / (.(.(.~.Y.L.L.P.W./.(.(.(.(.(.(.(.K.#               X $     OXOXOXOXOXOXOXOXOX",
"OXOXOXOXOXOXOXOXOXOXOXOXOX  = /.(.(.(.(.(.(.(././.(.x.) V 5 1 1 9 p / 2.W.(.(.(.(.(.4.        = d / >.k.-.    OXOXOXOXOXOXOXOXOX",
"OXOXOXOXOXOXOXOXOXOXOXOXOX    U.(.(.(.(.(.(.(.(.K.I e E 0.f.V.C.V.0.| h e ' ~.(.(.(.l.U ;.k.L.Y.~.(./.<.$   OXOXOXOXOXOXOXOXOXOX",
"OXOXOXOXOXOXOXOXOXOXOXOXOXOX  _ (.(.(.(.(.(.~.>.- E C.H.J.J.J.J.J.J.H.H.s.t C E.(.(.(.(./.(./.(./.(.;..   OXOXOXOXOXOXOXOXOXOXOX",
"OXOXOXOXOXOXOXOXOXOXOXOXOXOX  7 ~.(.(.(.(.~.L 9 p.J.J.J.J.J.J.J.J.J.J.J.J.C.m f Y.(.(.(.(.(.(.(./.1..   OXOXOXOXOXOXOXOXOXOXOXOX",
"OXOXOXOXOXOXOXOXOXOXOXOXOXOX    2.(.(.(././ c Z.J.J.A.A.A.A.G.J.J.J.J.J.J.J.G.m L /.(.(.(.(.(./.6..   OXOXOXOXOXOXOXOXOXOXOXOXOX",
"OXOXOXOXOXOXOXOXOXOX            f (.(.(.k.0 V.H.J.J.0 & & & , } J.J.J.J.J.J.J.B.9 5.(.(.(.(.(.x.X   OXOXOXOXOXOXOXOXOXOXOXOXOXOX",
"OXOXOXOXOXOXOX        X 6 Z _ 4.E.(.(./.U ^ H.Z.A.J.B.C.C.C.C.A.J.J.J.J.A.C.A.J.$.f /.(.(.(.l.$   OXOXOXOXOXOXOXOXOXOXOXOXOXOXOX",
"OXOXOXOXOXOXOX    V h.Y././.(.(.(.(.(.I.= s.^ % % h $.i.C.J.J.J.J.Z.i.F , $ % u.A.a L.(.(.x.X   OXOXOXOXOXOXOXOXOXOXOXOXOXOXOXOX",
"OXOXOXOXOXOXOX      Z U.~.(.(.(.(.(.(.2.l s.$ U.L.;.Z w = & 0 t 9 * w ) l.(._ v J.h 2.(.W.#       OXOXOXOXOXOXOXOXOXOXOXOXOXOXOX",
"OXOXOXOXOXOXOXOXOX    . w k././.(.(.(.` E C.0 / z.^.(.^.Y.z.g.4.k.I././.K.:.w } J.J :.(.~.' p 6 .           OXOXOXOXOXOXOXOXOXOX",
"OXOXOXOXOXOXOXOXOXOXOX      U I.(.(.(.L +.J.*.o - 5 I :.2.5.k.k.6.,.Z $ 9 e $ *.H.| / (.(.(.(.(.~.4.I d 5 X     OXOXOXOXOXOXOXOX",
"OXOXOXOXOXOXOXOXOXOXOXOXOX    5 2.(.(.Z @.V.t [ {.M.q.[ A   u t . k 8.).[.XXb.& u.+./ (.(.(.(.(./.(.(.(.6.5     OXOXOXOXOXOXOXOX",
"OXOXOXOXOXOXOXOXOXOXOXOXOXOX    f (.(.f #.+.S .XXXXXXXXX[.k 0.=.- [.XXXXXXXXXXo.F +./ (.(.(.(.(.(.(./.:.*     OXOXOXOXOXOXOXOXOX",
"OXOXOXOXOXOXOXOXOXOXOXOX    . U I.(.(.j #.D t.XXXXXX.XXXXXo.^ ~ O.XXXX{.).XXXXM.u | U (.(.(.(./.(.L.V     OXOXOXOXOXOXOXOXOXOXOX",
"OXOXOXOXOXOXOXOXOXOXOX    6 l./.(.(.(.d &.m n.XXXX9.D .XXXo.^ E 8.XXXXk q XXXXM.u &.V ~.(.(.(.Y.) =     OXOXOXOXOXOXOXOXOXOXOXOX",
"OXOXOXOXOXOXOXOXOXOX    d W.(.(.(.(.~.Z +.F t.XXXXT A .X.XA 0.} Y XXXXt.b.XXXX8.F u.6 g.~.I.C .     OXOXOXOXOXOXOXOXOXOXOXOXOXOX",
"OXOXOXOXOXOXOXOXOX  . ) ~./.(.(.(.L.w . ^ @.h {.XXXXXXXXr.q H.f.% ).XXXXXXXX`.- 0.*.% - V >.X       OXOXOXOXOXOXOXOXOXOXOXOXOXOX",
"OXOXOXOXOXOXOXOX    $ ) k.I.Y.P.Y.% $. .Q F.J 9 9.N.).T 1 F u.#.J % T n.).q.% @.J.=.m H.0 h./.z.w     OXOXOXOXOXOXOXOXOXOXOXOXOX",
"OXOXOXOXOXOXOXOXOX        . @   C q H.+.J J.G.u.m t 1 J Z.J #.m #.d.~ h 0 c u.H.J.*.c G.M 1.(.(.W.R     OXOXOXOXOXOXOXOXOXOXOXOX",
"OXOXOXOXOXOXOXOXOXOXOXOX        ) % C.+.J H.J.J.C.s.#.d.J.^ m 1 i.J.J.J.J.J.H.J.J.&.M A., l.(.(.(.(.` X   OXOXOXOXOXOXOXOXOXOXOX",
"OXOXOXOXOXOXOXOXOXOXOXOXOXOX  * !.Z G ^ m H.J.J.J 2 M s.J.i.o q Z.J.J.J.J.J.J.J.J.} u c C ~.(.(.(.(./.1.$   OXOXOXOXOXOXOXOXOXOX",
"OXOXOXOXOXOXOXOXOXOXOXOXOXOX  ) /.~.L 6 t Z.J.J.J.J.J.J.J.J.u.d.J.J.J.J.J.J.J.J.J.E 8 ;./.W.I.l.;.d = d p     OXOXOXOXOXOXOXOXOX",
"OXOXOXOXOXOXOXOXOXOXOXOXOX    x./.(./.I.- d.J.J.J.J.J.J.J.J.J.J.J.J.J.J.J.J.J.J.J.k 4.(.(.) X                 OXOXOXOXOXOXOXOXOX",
"OXOXOXOXOXOXOXOXOXOXOXOXOX  w ^.Y.z.<./ X #.J.A.^ A.J.J.B.i.*.%.&.d.J.J.S.v C.J.Z.y I.(.(.-.    OXOXOXOXOXOXOXOXOXOXOXOXOXOXOXOX",
"OXOXOXOXOXOXOXOXOXOXOXOX    # $           c J.| t d.1 % % 1 q l u % + , p., u.J.&.j /.(.(.W.    OXOXOXOXOXOXOXOXOXOXOXOXOXOXOXOX",
"OXOXOXOXOXOXOXOXOXOXOXOXOX        OXOX  . $ 0.s.& V.p.V.Z.H.J.J.J.A.V.p.d.i C.A.h ;.l.~.(.(.d   OXOXOXOXOXOXOXOXOXOXOXOXOXOXOXOX",
"OXOXOXOXOXOXOXOXOXOXOXOXOXOXOXOXOXOXOX  7 ' 9 S.F.J.J.J.J.J.J.J.J.J.J.J.J.J.J.| p >.  = / l.<.    OXOXOXOXOXOXOXOXOXOXOXOXOXOXOX",
"OXOXOXOXOXOXOXOXOXOXOXOXOXOXOXOXOXOXOX  f ) X q V.J.J.J.J.J.J.J.J.J.J.J.J.J.=.. V /         #     OXOXOXOXOXOXOXOXOXOXOXOXOXOXOX",
"OXOXOXOXOXOXOXOXOXOXOXOXOXOXOXOXOXOXOX  @ = m.D ; @.V.J.J.J.J.J.J.J.J.J.d.~ % j.r @   OXOX        OXOXOXOXOXOXOXOXOXOXOXOXOXOXOX",
"OXOXOXOXOXOXOXOXOXOXOXOXOXOXOXOXOXOXOX    P }.[ Y A + h %.i.d.d.i.*.} u $ r P |.3.    OXOXOXOXOXOXOXOXOXOXOXOXOXOXOXOXOXOXOXOXOX",
"OXOXOXOXOXOXOXOXOXOXOXOXOXOXOXOXOXOXOX    b.|.) w._.% 3.; < < < 7 + Y P k 9.H |._.-   OXOXOXOXOXOXOXOXOXOXOXOXOXOXOXOXOXOXOXOXOX",
"OXOXOXOXOXOXOXOXOXOXOXOXOXOXOXOXOXOXOX  0 '.|.K r.b w.].; 7.T.T.T.= _.].e Y k }.|.P   OXOXOXOXOXOXOXOXOXOXOXOXOXOXOXOXOXOXOXOXOX",
"OXOXOXOXOXOXOXOXOXOXOXOXOXOXOXOXOXOXOX  X.}.}.u b.; _.m.r Q.Q.Q.Q.C j.r.e n.6 }.|.j.    OXOXOXOXOXOXOXOXOXOXOXOXOXOXOXOXOXOXOXOX",
"OXOXOXOXOXOXOXOXOXOXOXOXOXOXOXOXOXOX  X N.}. X0 _.O.S T ( T.Q.Q.Q.] j * m.`.- |.|.`.-   OXOXOXOXOXOXOXOXOXOXOXOXOXOXOXOXOXOXOXOX",
"OXOXOXOXOXOXOXOXOXOXOXOXOXOXOXOXOXOX  e oX}.`.- '.].y.# D.T.Q.Q.Q.7.# n.}.'.= '.|. XT   OXOXOXOXOXOXOXOXOXOXOXOXOXOXOXOXOXOXOXOX",
"OXOXOXOXOXOXOXOXOXOXOXOXOXOXOXOXOXOX  X C { X.- |.|.:.o b s s b s s X X.}. X0 X.O.A -   OXOXOXOXOXOXOXOXOXOXOXOXOXOXOXOXOXOXOXOX",
"OXOXOXOXOXOXOXOXOXOXOXOXOXOXOXOXOXOX    Q +.M t |.`.% z n 4 8 ! + n n + m.|.j v } $.X   OXOXOXOXOXOXOXOXOXOXOXOXOXOXOXOXOXOXOXOX",
"OXOXOXOXOXOXOXOXOXOXOXOXOXOXOXOXOXOX  X #.G.@.P [.A 3 B B x b *.+ B B z 9 ].Y | J.f.q   OXOXOXOXOXOXOXOXOXOXOXOXOXOXOXOXOXOXOXOX",
"OXOXOXOXOXOXOXOXOXOXOXOXOXOXOXOXOXOX      s. .S A o N B B z H a.; B B B 2 k P F J.M     OXOXOXOXOXOXOXOXOXOXOXOXOXOXOXOXOXOXOXOX",
"OXOXOXOXOXOXOXOXOXOXOXOXOXOXOXOXOXOXOX    % o   o o B B B 4       B B B z .     , .   OXOXOXOXOXOXOXOXOXOXOXOXOXOXOXOXOXOXOXOXOX",
"OXOXOXOXOXOXOXOXOXOXOXOXOXOXOXOXOXOXOXOX            N B B 2       n B B 3           OXOXOXOXOXOXOXOXOXOXOXOXOXOXOXOXOXOXOXOXOXOX",
"OXOXOXOXOXOXOXOXOXOXOXOXOXOXOXOXOXOXOXOXOXOXOX      > > > O       : : 2 o     OXOXOXOXOXOXOXOXOXOXOXOXOXOXOXOXOXOXOXOXOXOXOXOXOX",
"OXOXOXOXOXOXOXOXOXOXOXOXOXOXOXOXOXOXOXOXOXOXOXOXOX  A q.q.0       Y r.%.X   OXOXOXOXOXOXOXOXOXOXOXOXOXOXOXOXOXOXOXOXOXOXOXOXOXOX",
"OXOXOXOXOXOXOXOXOXOXOXOXOXOXOXOXOXOXOXOXOXOXOXOXOX  A O.O.9       K O.X.X   OXOXOXOXOXOXOXOXOXOXOXOXOXOXOXOXOXOXOXOXOXOXOXOXOXOX",
"OXOXOXOXOXOXOXOXOXOXOXOXOXOXOXOXOXOXOXOXOXOXOXOX    $ * & X       % - = o   OXOXOXOXOXOXOXOXOXOXOXOXOXOXOXOXOXOXOXOXOXOXOXOXOXOX",
"OXOXOXOXOXOXOXOXOXOXOXOXOXOXOXOXOXOXOXOXOXOXOXOXOX  X e e X       9 a -     OXOXOXOXOXOXOXOXOXOXOXOXOXOXOXOXOXOXOXOXOXOXOXOXOXOX",
"OXOXOXOXOXOXOXOXOXOXOXOXOXOXOXOXOXOXOXOXOXOXOXOXOX      .     OX    .     OXOXOXOXOXOXOXOXOXOXOXOXOXOXOXOXOXOXOXOXOXOXOXOXOXOXOX",
"OXOXOXOXOXOXOXOXOXOXOXOXOXOXOXOXOXOXOXOXOXOXOXOXOXOXOX      OXOXOX      OXOXOXOXOXOXOXOXOXOXOXOXOXOXOXOXOXOXOXOXOXOXOXOXOXOXOXOX",
"OXOXOXOXOXOXOXOXOXOXOXOXOXOXOXOXOXOXOXOXOXOXOXOXOXOXOXOXOXOXOXOXOXOXOXOXOXOXOXOXOXOXOXOXOXOXOXOXOXOXOXOXOXOXOXOXOXOXOXOXOXOXOXOX"
};
