/* XPM */
static char *e2becc43e76d41c18404b2dd27f8e1ddCSlwDDn7EuueZB0I[] = {
/* columns rows colors chars-per-pixel */
"64 64 240 2 ",
"   c #2E0200",
".  c #390600",
"X  c #350900",
"o  c #3C0C00",
"O  c #370906",
"+  c #3E1100",
"@  c #3F1603",
"#  c #380114",
"$  c #410E00",
"%  c #480F00",
"&  c #441300",
"*  c #491600",
"=  c #451901",
"-  c #4B1B02",
";  c #4B1C0B",
":  c #45160C",
">  c #511D02",
",  c #521E09",
"<  c #4B1B13",
"1  c #511E13",
"2  c #4E2202",
"3  c #4E230C",
"4  c #532203",
"5  c #5B2B02",
"6  c #53230A",
"7  c #58250D",
"8  c #55290C",
"9  c #5B2A0D",
"0  c #582601",
"q  c #5E3209",
"w  c #532513",
"e  c #5B2711",
"r  c #562A12",
"t  c #5C2A13",
"y  c #5A2918",
"u  c #5D3215",
"i  c #4D2114",
"p  c #612C09",
"a  c #623304",
"s  c #65330D",
"d  c #6A390B",
"f  c #612D17",
"g  c #663618",
"h  c #592724",
"j  c #683925",
"k  c #551F2C",
"l  c #784B1C",
"z  c #794B26",
"x  c #7F522D",
"c  c #7C4D36",
"v  c #754932",
"b  c #9A6714",
"n  c #834F2D",
"m  c #834F20",
"M  c #84522C",
"N  c #8C5A2D",
"B  c #885628",
"V  c #915E2C",
"C  c #845434",
"Z  c #8D5C35",
"A  c #8B5B3B",
"S  c #875637",
"D  c #915D34",
"F  c #925E3D",
"G  c #9B652C",
"H  c #9E6B2A",
"J  c #9B6428",
"K  c #946335",
"L  c #996633",
"P  c #9D6A34",
"I  c #95643C",
"U  c #9A663B",
"Y  c #97693A",
"T  c #9C6A3C",
"R  c #966937",
"E  c #9D703D",
"W  c #8F6332",
"Q  c #A36C2C",
"!  c #A46C29",
"~  c #A6702E",
"^  c #A8742B",
"/  c #A36D33",
"(  c #A26E3C",
")  c #A96D33",
"_  c #A57234",
"`  c #AB7334",
"'  c #AD7836",
"]  c #A4723C",
"[  c #AB743B",
"{  c #AE7A3C",
"}  c #B37B3C",
"|  c #B27937",
" . c #875742",
".. c #915F44",
"X. c #8C5558",
"o. c #956443",
"O. c #9A6645",
"+. c #966943",
"@. c #9C6B44",
"#. c #9C6A4A",
"$. c #96674B",
"%. c #9D7144",
"&. c #93644D",
"*. c #A26E42",
"=. c #A16D4D",
"-. c #A66A43",
";. c #A47244",
":. c #AA7644",
">. c #AD7A43",
",. c #A4734A",
"<. c #AA754A",
"1. c #AC7A4B",
"2. c #A5784C",
"3. c #B37D43",
"4. c #B97E41",
"5. c #B27E4B",
"6. c #B37942",
"7. c #A47453",
"8. c #AD7C54",
"9. c #AC7C5B",
"0. c #A77558",
"q. c #B17D52",
"w. c #B47C58",
"e. c #A47760",
"r. c #A06A60",
"t. c #B5803F",
"y. c #B9833E",
"u. c #B9863A",
"i. c #C08C3A",
"p. c #AC824B",
"a. c #B58143",
"s. c #BB8444",
"d. c #BE8945",
"f. c #B5834B",
"g. c #BC854B",
"h. c #BE894C",
"j. c #B58353",
"k. c #BA8652",
"l. c #B68955",
"z. c #BD8A53",
"x. c #B4835A",
"c. c #BC8C5B",
"v. c #B7885C",
"b. c #BF905B",
"n. c #B38852",
"m. c #BA8B63",
"M. c #B58B67",
"N. c #BD9165",
"B. c #B68C6B",
"V. c #C08647",
"C. c #C18B46",
"Z. c #C1864A",
"A. c #C38B4C",
"S. c #C88E4F",
"D. c #C4914E",
"F. c #C9924E",
"G. c #CA984B",
"H. c #C18651",
"J. c #C38D53",
"K. c #C98E53",
"L. c #C18D5A",
"P. c #C88F58",
"I. c #C59154",
"U. c #CA9354",
"Y. c #C4935B",
"T. c #CA945B",
"R. c #CD9A5C",
"E. c #C99958",
"W. c #D39C5D",
"Q. c #D19956",
"!. c #D4A25D",
"~. c #D9A65E",
"^. c #C18C64",
"/. c #C68E68",
"(. c #C49362",
"). c #C99563",
"_. c #CC9A64",
"`. c #C3956B",
"'. c #CB9B6A",
"]. c #C99869",
"[. c #D39D63",
"{. c #D29E6B",
"}. c #D09760",
"|. c #CC9C73",
" X c #C79975",
".X c #D39E71",
"XX c #D5A264",
"oX c #DAA364",
"OX c #DCAB66",
"+X c #D4A36B",
"@X c #DBA56B",
"#X c #D7AA6E",
"$X c #DDAA6C",
"%X c #D7AA67",
"&X c #DFB26E",
"*X c #CDA072",
"=X c #CAA078",
"-X c #D4A573",
";X c #D8A472",
":X c #DCAB74",
">X c #D4A47A",
",X c #DCAB7A",
"<X c #D8A777",
"1X c #DEB27B",
"2X c #DEB274",
"3X c #CEA265",
"4X c #E2AD6D",
"5X c #E1A869",
"6X c #E3B26E",
"7X c #E5B368",
"8X c #E2AD72",
"9X c #E0AD7A",
"0X c #E5B274",
"qX c #EAB575",
"wX c #EDBB74",
"eX c #E4B37B",
"rX c #EBB57B",
"tX c #ECBA7B",
"yX c #E7B97A",
"uX c #F1BD7D",
"iX c #F0BE75",
"pX c #F4C37D",
"aX c #EDC178",
"sX c #DDAD82",
"dX c #D8AC87",
"fX c #E2AE81",
"gX c #E4B482",
"hX c #EAB783",
"jX c #EBBB84",
"kX c #EAB788",
"lX c #F1BE85",
"zX c #E5B792",
"xX c #EFC186",
"cX c #F4C283",
"vX c #FAC68A",
"bX c #FDCA8B",
"nX c #FAC885",
"mX c #F9C592",
"MX c #FAC796",
"NX c #FFCEA5",
/* pixels */
"F.!.OX6XR.R.'.%.X z `.(.+XOXwX7X!.R.R.XX6XqXqX6XXXW.W.W.W.!.!.!.U.!.6X%X%XY.3X2.X 5  X-X+XR.G.~.6X$XW.XXR.XXtX4XXXE.W.XXU.R.E.a.",
"qXpXcXcX$X:XgXN.= C |.sXhX$XiXwXoX$XqXcXvXbXcXuX$X$X4X$XOXoXXXXX6XwXpXtXxX2XjXN.= s  X-X-XXX~.qXpXuX8X4X@X8XbXcX:X$X0X0XeX0X$XE.",
"$X4X$XXXz.Y.-Xj.& p O.v.<XR.U.s.s.U.oX4X$XW.U.Z.h.Z.J.J.J.J.J.J.s.h.I.E.#X2XxX'.& = =.m.,XeXU.s.h.J.g.h.f.J.8X:X0X$XY.a.g.h.3.{ ",
"8X0X@XXXY.+XgXm.0 g O.x.<XXXR.s.U.[.4X8X$X[.U.Z.J.g.3.3.s.h.Z.Z.g.h.J.I.eXgXNXsX= * o.8.;X:XS.} h.J.h.I.L.R.eX$XeX8XJ.3.E.R.f.3.",
"H.J.H.h.f._.<X2.. g =.-.<.[ h.s.s.g.Z.J.J.J.J.J.8XW.s.} s.Z.J.Z.H.H.h.f.Y.Y.<Xx.= 4 =.@.*.>.s.Q.g.H.s.H.g.g.I.s.G / G >.@X@Xg.[ ",
"3.J.I.E.I.+XfX8.$ g =.O.:.6.I.S.S.Z.g.s.s.A.J.U.@XU.} ` 3.Z.J.J.H.Z.Z.g._.{.gXm.& > #.O.*.[ 3.I.H.U.H.I.g.g.R.h./ _ [ g.@X8XU.{ ",
") J.[.[.J._.,Xq.- 9 M D j.g.S.s.A.A.s.} ` ` } Z.U.C.s.s.S.Q.oXoX) / ` 3.XXeXmX.X- > @.w..X@XI.s.s.Z.s.s.[ } [.[.U.g.s.s.A.J.g.` ",
"Q U.4XoXA.E.:Xj.* 0 B *.L.3.d.A.s.C.C.s.' ` s.F.V.C.C.A.U.Q.W.oX` Q / { $XrXmX].& * O.q.{.@XU.C.A.U.S.s.Q ' oXqXS.s.A.D.s.A.A.` ",
"J.Z.D.I.t.XXvXY.& a *.j.k.g.! ! ! C.oX!.A.y.s.d.s.C.s.F.4XQ.` ~ s.I.A.h.s.I.+Xb.= - D m [ 3.5XqX4X!.A.s.s.s.A.A.h.A.d.D.h.s.I.} ",
"Z.s.A.D.a.XXcXz.& a T 1.>.} H ! ~ s.U.U.S.A.A.A.y.A.A.U.oXD.` ' g.Z.a.s.d.R.:XY.& - K N >.} W.oX$X!.U.I.U.U.A.s.d.h.s.A.s.a.A.' ",
"J.z.h.D.a.R.eXp.= d T ;.( ] Q { 5XOXW.U.h.a.` H _ t.s.D.Q.A.s.h.g.L.A.R.XX$X#Xp.& 2 Y D ( G ' ' _ h.[.XXJ.a.f.J.J.g._ _ _ 3.[.E.",
"(.L.z.z.h.3X1Xl.= s I +.K T / f.XXR.J.f.f.>._ G P [ 3.g.h.g.g.z.z.Y.Y.XX:X2X1Xl.= 5 @.+.*.L / P L k.-X;XY.f.k.Y.k.5.P L L >._.(.",
"U Y K R E l.*Xp.o 6 C C M Z K ;.;.*.T T T U K N *.*.*.;.*.;.*.@.@.T Z K Y p.'.N.X = C C S Z U T Y Y Y @.@.Y B z @.;.@.,.@.T ,.D ",
"=.7.@.%.2.m.=XM.6 g  .S C o.A #.#.@.#.@.o.S n n #.I o.o.F @.=.I 7.7.@.%.%.8. XN.- 6 c c c A F I 7.#.O.O.#.O.F C o.O.o.#.O.o.O.C ",
"& - & + + = 6 @   X ; : & 3 = 4 * & - > , * & * - & * - & 6 f > = - * 2 = & 3 @ + o w ; & 6 > 4 & & - - & & & & - - & = & & w & ",
"> p 4 4 2 4 q 2 8 6 t - > 9 - 4 4 - > 4 4 = & & 7 - 7 7 = 6 s 4 9 9 4 0 2 2 q 2 6 = r 6 & 7 4 4 7 4 > 4 7 6 = o 6 7 2 8 4 - 7 & ",
"hX9X9X;X).+X,X:X+X].].<X,X-X_.T.Y.XX_.'.-X,.+ s  X`.'.].Y.'.0X0X8X9X_._.).).,X,X_.(._.{._.{.@X+X,X9X_.(.*X8.& 5 N.`.|.'._.'.(.5.",
"vXnXbXcX0XqXcXuX$XoXOX0XlXtXrXqX7X7X!.XXeXl.- d ,X<X1XeX0XtXnXpXbXnX8X4X0X0XcXcXrX4X8X8XoXoX8X$XpXcX$X$XeXc.- 5 -X-X<X:X+X$X4XR.",
"8X8X0X@XL.J.Y.J.I.J.J.I.I.J.z.A.4XOXU.R.,Xl.& 5 ,.c.<X#XI.U.OXqX8X$XH.Z.H.g.I.J.J.Z.J.U.P.[.eXeXT.R.I.R.,Xl.& 4 ;.2.c.Y.Y.Y.z.` ",
"8X8X8XXXL.J.I.h.h.L.E.Y.z.h.L.R.5XoXA.R.eXc.= 5 +.x.<X<XI.I.OXqX4X@XJ.J.J.H.R.J.g.a.s.g.s.I.[.[.3.g.5.T.hX(.- 4 Y @.j.c.z.J.g._ ",
"J.H.L.z.f.g.J.g.z.R.[.J.[ G / { U.U.h.R.9Xc.& 5 o.I ;.5.f.J.I.s.H.J.5.H.J.J.[.}.[ [ 6.6.3.J.}.P.H.P.H.{.mX.X> 4 @.@.;.;.( 3.z.3.",
"J.J.I.I.h.J.I.H.I.@X8X}.6./ / [ 3.Z.H._.9Xx.& 5 +.U <.j.g.I.U.s.U.T.s.H.I.I.@X@XJ G [ 6.[ g.T.J.H.J.g._.kX'.- > Z K T T L [ 3.[ ",
"Z.U.[.W.g.s.g.3.J } Z.Z.s.s.Z.J.C.W.@XrXmX).4 d N T j.c.3.s.J.S.oXT.[ | 4.s.K.Z.Z.T.oXU.| | Z.s.Z.J.s.).hX'.> 0 T <.c.(.J.I.J.6.",
"s.U.4X4XI.s.A.s.Q } A.A.A.S.A.s.C.W.@XtXmX).- 5 V T 5.L.H.I.U.C.qXW.` ` s.C.U.V.s.Q.4XQ.` ~ s.A.A.Z.a.L.9Xc.& > U ;.k.z.s.h.A.} ",
"I.' Q s.OXqXOXQ.s.C.D.A.d.s.A.D.A.A.tX8XrXY.4 a T >.z.Y.J.a._ J ~ } s.A.A.C.A.S.A.C.A.A.S.A.A.A.A.S.qX@X8XL.- 4 m ;.+X$XI.S.A.Q ",
"d.{ ` d.!.$X4X$XA.h.s.s.d.h.A.A.s.Z.8X@XeXk.= 5 K ] 3.f.3.{ ` ` ' } s.d.A.A.d.d.d.A.A.s.t.} s.A.s.A.4X@XtXL.& - l ;._.XXI.S.h.' ",
"U.J.g.a.[ _ _ { :X[.L.h.J.I.J.g.] >.R.).eXj.= a T T ;.] ] [ 3.g.g.g.h.J.I.I.J.h.Z.J.J.a.[ [ s.I.S.h.E.I.eXz.& 0 K ;.1.k.+X$XD.~ ",
"z.z.k.>.P L ] 1.:X'.c.k.z.z.j.5.P ] k.(.kXl.= q @.T Y T ( >.f.k.z.k.k.k.k.k.k.z.k.z.k.3.( ] 5.c.L.g.f.f.gXc.= 4 Y %.Y ;.+X,Xh.H ",
"@.;.*.Y D K @.1.,.;.@.@.*.;.;.;.*.,.8.m.dX9.= 2 +.A C C I @.,.;.;.*.*.U K K T ;.*.;.*.T U U *.;.;.] ;.v.zXm.= o z o.+.+.1.1.T T ",
"O.O.o.A C C A A o.o.o.O.O.O.O.O.=.#.7.9. X0.u u $...S A o.#.#.O.o.O.O.F S S o.#.O.o.o.o.O.O.O.O.+.I @.8.|.x.u 3 c ..$.o.+.o.I I ",
"& & & & & - ; - - - - - - = = = - & - - w 3 X   = & & & & = * * * * - * & & * - * & * * * * * * - & & & - ; X   : + + & = - = o ",
"o & & o o & & o & + & & * = = = 4 * = & X + = = + & & & $ o $ & $ & $ & * & & $ $ & & & & & & & o $ - & X & = = & o = = X o = $ ",
"<X-X|.,.& z |.>X'.1XyX#X+X1XgXeX'.XX@XXX+X+X+X[.+X'._.@XhXlXjX8XXX+X].8.o q |.>X>X<XjXeXeXeX{.;XlXeX;X{.{.+X+X{.{.<XhXgX+X+X[.L.",
"#X:X,Xj.> M |.<X#XxXbXaX6XyXtXtX4X0X0X4X4X4X4X$X0X6X0XtXnXbXbXnXOX6X$Xk.& d =XsX,XeXbXbXbXnXqXuXnXuX0X8X8X0X0X0X$X0XcXcXqXqX$XI.",
"R.+X,Xq.& d 8.j.L.$X0X%XE.E.R.R.A.I.U.I.I.U.R.R.A.U.oX0X0XoXU.A.D.R.:XY.& 5 8.x.c.Y.eXqXqXrX@X@X[.R.I.I.I.E.R.U.R.[.eXtXeX8X}.} ",
"g._.fXv.* p O.@.k.).XXE.h.h.z.h.s.A.I.Z.a.a.g.g.J.W.8XqX0XoXU.Z.g.E.eX(.& 4 I I `.(.$X$X8XrX5X8XH.g.s.s.g.g.g.g.s.J.XX8X@X@XI.[ ",
"L k.<Xx.* p U U c.R.R.I.h.z.L.z.I.oX@XI.6./ ` [ s.g.g.g.g.Z.J.U.0X0XmX].& 5 #.8.x.:.3.>.s.I.H.J.J.J.J.J.J.J.H.H./ 6.J.T.P.I.H.[ ",
"/ z.<Xj.% 0 D D 5.k.L.J.J.L.z.g.s.T.[.J.[ Q / ` J.J.J.J.J.Z.J.J.0X8XMX'.* p o.,.c.1.3.{ s.P.g.H.H.Z.Z.g.g.g.g.g./ [ s.g.4.g.g.[ ",
"[.eXmX).> p U U :.z.[.@XXXR.L.g./ s.U.K.s.4.s.Z.g.U.oXoXU.4.` / I.I.lX(.& 5 n B 1.:.g.g.g.J.6.6.Z.Z.A.Z.Z.Z.Z.Z.Z.Z.J.K.A.U.K.} ",
"$XtXvXL.* p U ( L g.oXqX4XR.z.3.J ` s.Z.Z.A.A.A.g.Q.5XoXA.' ) ` D.h.rXk.$ 5 M Z K ( J.I.S.Z.) ) Z.V.A.A.A.C.S.S.S.V.Z.V.s.S.s.Q ",
"D.Q.8X5.* s K >.g.3._ H ' I.XXoXJ.A.s.s.h.A.A.s.A.} ! } 5X4XS.s.y.D.bX:X. 4 ,.N V { $XW.S.S.4.K.4XW.qXoX! ! I.F.s.D.A.A.S.s.s.' ",
"F.U.8X5.* d T :.z.a._ H ` h.[.XXs.h.I.I.I.A.S.S.I.s.} s.W.W.I.D.G.!.cX[.- 5 T ;.] f.%XW.D.I.V.U.qXoX4XXX' ~ s.t.U.U.t.s.S.A.S.' ",
"A.D.8X1.$ d T T f.f.a.{ a.a.>.] _ s.R.W.I.g.g.A.A.a.3.a.} a.h.A.OX$X:Xz.> - z Y p.f.E.D.h.J.g.Z.` [ } 3.3.g.J.I.oXE.` [ g.h.Z._ ",
"z.R.jXv.& g ,.@.v.c.I.Y.c.f.E K ] h.[.XXY.g.g.z.L.f.k.f./ ] z.J.OX2XeXc.- 2 x @.c.l.k.f.h.J.k.k.P ] P ( k.L.k.L.;X_.:.:.f.k.J.:.",
"] j.sX8.. 9 A A 2.,.%.E T Y I I U ;.q.5.;.T K L <.( <.;.D U 1.:.>.l.sXm.o 6 &.#.7.@.W K ( ;.;.*.U *.N N <.1.T ;.q.q.U U U K *.K ",
"Y 2. X7.= g c A $.o.+.+.o.A S S o.o.O.o.I Z C M @.O.@.O.K O.=.U I %.|.B.= j e.&.$.o.x Z I K @.I F o.C C #.=.O.=.o.=.o...S C F A ",
"5 q g t   : : ; 6 6 8 u t - & & 7 6 4 > 4 > - = > 7 6 > 7 9 6 4 0 8 j v   : h i w 8 & 4 9 > 9 , e t 6 - 6 , - , > t , 6 > * 6 = ",
"4 - = = o 7 & & * & & & & & * > * & & & * = * & $ 4 * $ - - $ & = & o 4 - w ; - = = X = - o - % o & & & & & * - & - $ & * & - o ",
"Y.f.g.).).z.z._.+X+X{.).L.z.L.(.(.%.X d (.l.c.c.f.T.+X:X+XT.c.z.f.R.+X_.L.L.(.Y.:X_.c.z.L.Y.Y.c.z.p.  > `.].k.k.c.]._.XXE.z.^.,.",
"4X4X4X4X$XoX$X0XnXbXbXuX0X$X$X:X-Xj.2 l <X#XeXyXrXtXcXvXbXcXtX0X8XtXcXtX0X0X0X4XlXuXtX0X4X4X4X4X&X_.- g *X#X&X0X:XhXtXpX7X~.,X(.",
"I.W.[.U.E.XX4X8XR.[.oXW.E.I.E._.gXx.= d l.f.Y.c.I.J.I._.$X0X:XXXJ.U.T.U.J.J.J.h.E.XX$XoXE.Z.J.E.eXb.& 4 8.c.OX0X] z.E.!.G.Q.,X|.",
"a.h.Z.g.h.E.XXoXs.s.s.a.a.g.I._.fX8.o 5 ;.;.c.z.z.z.I.R.@X8X8X:XJ.I.I.J.Z.J.I.U.g.T.@X@XT.J.U.[.yXc.& - o.:._.+XL :.{ d.u.D.;X/.",
"U.Z.Z.H.Z.s.s.Z.4X[.U.Z.J.R.@X9XMX/.> s *.:.).L.J.E.[.[.R.I.Y.I.Z.Z.Z.g.g.Z.I.[.Q { Z.J.g.s.g.H.eX^.* 7 O.:.R._..X{.I.D.C.C.).w.",
"A.g.Z.J.g.[ ` [ oXW.S.g.Z.W.@XeXNX`.4 s K T L.f.L._.@XoXR.J.J.U.T.J.Z.A.J.U.W.oX` } g.S.Z.Z.J.E.9X^.& , #.*.f.z.9X;XJ.A.u.s.L.-.",
"' C.W.W.I.V.s.s.4.s.s.V.A.Q.5XrXkX9.* s T 5.9X[./ [ 3.s.g.g.Z.A.A.} ` } s.s.4.} } 4.V.V.s.Z.S.I.lX>X* , 7.;.[ a.).T.g.C.i.C.T.<.",
"J F.4X~.S.C.Z.y.! ' V.A.S.U.5XrXkX9.* s U 1.:X_./ Q Q } Z.U.U.S.S.} ~ | V.s.' ! C.S.S.A.A.C.I.Q.vXfX* % =.T J _ H.P.A.C.i.u.J.-.",
"y.d.A.A.C.d.s.d.s.s.C.C.C.d.F.[.mX|.. 5 ( ( >.>.a.s.h.A.A.A.S.D.C.C.C.d.s.s.s.y.C.d.d.C.A.F.W.5X8X).$ , D B h.d.h.3.' ^ b | @X).",
"A.A.F.F.A.d.s.s.S.d.s.s.s.d.F.R.MX>X> d T L / ] h.h.h.h.S.J.h.s.A.A.A.A.A.A.A.A.A.C.C.d.s.A.oXwXrX'.$ * B m h.D.Y.f._ ! b u.@X^.",
"h.A.A.h.s.a.} { OXR.S.h.h.d.A.I.fXm.& a N B K ] k.R.+XR.3./ / >.h.h.A.h.A.A.A.A.4XI.{ ' s.U.R.R.+X(.$ - I N _ ] ] f.I.E.| { ).w.",
"z.z.z.g.g.3.>.>.$X[.E.L.J.z.L.(.sXx.& 5 M K %.1.c.{.<X_.1.L T :.z.z.z.z.H.z.L.L.eXY.{ { h.Y.L.h.#X].= 7 7.T P L K j.'.:XE.g.^.0.",
";.;.;.;.*.T T U U T T *.*.*.<.x.zX9.& 4 z A +.%.2.@.I I O.O.F C *.*.*.*.*.*.*.*.K T *.*.U K ;.l.gXN.o X c C R T #.o.M Y ;.<.0. .",
"#.@.#.@.#.@.O.o.S Z o.@.O.O.=.9.dXe.8 g x o.#.7.#...C S ..&...S #.@.#.@.O.O.O.o.n Z O.#.O.I =.8.sXM.w < v C @.@.7.$.x C Y O.r.X.",
"t 7 7 7 t e e 7 7 7 t t t 7 e t j r   = - r r g r e y w 1 < 1 w e 9 e 9 e 9 e 9 e 6 6 9 f t t 9 l g X O < - 9 2 w j t t s 6 h k ",
"& & $ & & & & $ & $ o $ & $ $ & + & o w + + o - & + o & : < : o $ $ $ $ & & & & $ $ & & $ o $ = + = O < @ X - + ; 1 o & 2 & # # "
};
