/* XPM */
static char *result[] = {
/* columns rows colors chars-per-pixel */
"64 64 59 1 ",
"  c #21382A",
". c #27422E",
"X c #28422F",
"o c #2C4533",
"O c #2D4B32",
"+ c #304737",
"@ c #304837",
"# c #34473B",
"$ c #324A39",
"% c #335536",
"& c #355439",
"* c #39533E",
"= c #365A39",
"- c #395E3B",
"; c #3C603E",
": c #3C4E43",
"> c #3E5643",
", c #3E5A42",
"< c #3E6040",
"1 c #435646",
"2 c #415B46",
"3 c #475748",
"4 c #455B48",
"5 c #4A5C4C",
"6 c #4C5D51",
"7 c #505F55",
"8 c #426443",
"9 c #47624A",
"0 c #4B654E",
"q c #4A694B",
"w c #4E6451",
"e c #4F6B51",
"r c #516552",
"t c #526C54",
"y c #56625B",
"u c #58635C",
"i c #566D58",
"p c #5B6E5C",
"a c #557057",
"s c #577159",
"d c #59735B",
"f c #5F7561",
"g c #636F65",
"h c #637564",
"j c #667568",
"k c #677968",
"l c #6A7B6B",
"z c #6F7672",
"x c #717773",
"c c #727E73",
"v c #7E7E7E",
"b c #748075",
"n c #778178",
"m c #7A837A",
"M c #7F8680",
"N c #818781",
"B c #878988",
"V c #8C8D8C",
"C c None",
/* pixels */
"CCCCCCCCCCCCCCCCCCCCCCCCCCCCCCCCCCCCCCCCCCCCCCCCCCCCCCCCCCCCCCCC",
"CCCCCCCCCCCCCCCCCCCCCCCCCddddddddddddddCCCCCCCCCCCCCCCCCCCCCCCCC",
"CCCCCCCCCCCCCCCCCCCCCCCCCddddddddadsaad5CCCCCCCCCCCCCCCCCCCCCCCC",
"CCCCCCCCCCCCCCCCCCCCCCCdt;tVB-=-;;=;;;;ad5CCCCCCCCCCCCCCCCCCCCCC",
"CCCCCCCCCCCCCCCCCCCCCC9ae;qBB;------==;qd5CCCCCCCCCCCCCCCCCCCCCC",
"CCCCCCCCCCCCCCCCCCCCidt;%              %;tdtCCCCCCCCCCCCCCCCCCCC",
"CCCCCCCCCCCCCCCCCCCCidt;%              %-tdiCCCCCCCCCCCCCCCCCCCC",
"CCCCCCCCCCCCCCCCCCCCide;%          VV> %-tdiCCCCCCCCCCCCCCCCCCCC",
"CCCCCCCCCCCCCCCCCCCCrde;%          BV: %-edtCCCCCCCCCCCCCCCCCCCC",
"CCCCCCCCCCCCCCCCCCide-%            dd@   %-0diCCCCCCCCCCCCCCCCCC",
"CCCCCCCCCCCCCCCCCCtdq-%            dd@   &;qdrCCCCCCCCCCCCCCCCCC",
"CCCCCCCCCCCCCCCCCCrdq-%      we    +o4wo hmkdtCCCCCCCCCCCCCCCCCC",
"CCCCCCCCCCCCCCCCCCtdq<%      dd      wd@ zBcdrCCCCCCCCCCCCCCCCCC",
"CCCCCCCCCCCCCCCCwazNrX  Xw0wedd    &%<<o #:>8qiwCCCCCCCCCCCCCCCC",
"CCCCCCCCCCCCCCCCwfbVy   @fdddda    ----.   O-qdwCCCCCCCCCCCCCCCC",
"CCCCCCCCCCCCCCCCwdaq: o008<<<oo     .=-9wo O-qdrCCCCCCCCCCCCCCCC",
"CCCCCCCCCCCCCCCCwdq;O ode;;;;        %;ed@ O-qdrCCCCCCCCCCCCCCCC",
"CCCCCCCCCCCCCCCCrdq-O @de-%OO        %;8qX O-qdrCCCCCCCCCCCCCCCC",
"CCCCCCCCCCCCCCCCwdq;O @dt;%          %;;-. O-qdrCCCCCCCCCCCCCCCC",
"CCCCCCCCCCCCCCiiqq-@&>2q8OX        OOOO%--1%@rbjitCCCCCCCCCCCCCC",
"CCCCCCCCCCCCCCddq-O >dt-%          =;. %-id> yVnddCCCCCCCCCCCCCC",
"CCCCCCCCCCCCCCddfh1 >dt-%          OO. %-td> 1hdddCCCCCCCCCCCCCC",
"CCCCCCCCCCCCCCdscVu >dt-%              %;ad> O-qddCCCCCCCCCCCCCC",
"CCCCCCCCCCCCCCeehxr@4de%o    ..X...Oo  %;qt* o%8ttCCCCCCCCCCCCCC",
"CCCCCCCCCCCCdd8;o ,ddd0      ------dd@ %--;O   O;8ddCCCCCCCCCCCC",
"CCCCCCCCCCCCdd8;$ >daq9      %%%%--ddo O%--%@#:,-8ddCCCCCCCCCCCC",
"CCCCCCCCCCCCdd8=O >dq;%          --ddo   %-qdbVh-8ddCCCCCCCCCCCC",
"CCCCCCCCCCCCdd8;@ >dq;%  @@oo    %%et>$  %-qdjxi-8ddCCCCCCCCCCCC",
"CCCCCCCCCCCCdd8;O >dq;% $dddd      -;tdo %-qd> O;8ddCCCCCCCCCCCC",
"CCCCCCCCCCCCdd<-O 2dq;% @dddd      --ed$ %-qd* O-8ddCCCCCCCCCCCC",
"CCCCCCCCCCCCdd8-qdddq;<dt;<dd      -;ad@ %-qd, O;8ddCCCCCCCCCCCC",
"CCCCCCCCCCCCdd8;qdddq-8dt-8dd      --tdo %-qd> O;8sdCCCCCCCCCCCC",
"CCCCCCCCCCCCdd<;O ,dq;8de-%          %;. %-qa> yVMddCCCCCCCCCCCC",
"CCCCCCCCCCCCdd<;O >sq;8de-%          O;. %-qd> yVMddCCCCCCCCCCCC",
"CCCCCCCCCCCCdd8;O >dq;8dt;%          %;. %-qd> O;8ddCCCCCCCCCCCC",
"CCCCCCCCCCCCdd<;O >dq-8de;O          %=. %-qd, O;<ddCCCCCCCCCCCC",
"CCCCCCCCCCCCdfcn5 X+o.O<-X.        %%qto %-qd> O;<ddCCCCCCCCCCCC",
"CCCCCCCCCCCCddMVy     X;%          ;;qdO %-9d> O;<ddCCCCCCCCCCCC",
"CCCCCCCCCCCCddte*   X%%-%        %%eedd@ %;%@o O;<ddCCCCCCCCCCCC",
"CCCCCCCCCCCCdd8-O   O---%        =;dddd@ %;o   O;<ddCCCCCCCCCCCC",
"CCCCCCCCCCCCCCee<&X  X%eq%O      =;sd:o%%qe> .%<taCCCCCCCCCCCCCC",
"CCCCCCCCCCCCCCddq-O   @ft;%      ;;dd+ %;ed, O-qddCCCCCCCCCCCCCC",
"CCCCCCCCCCCCCCpdq-O   .>2q<OO    qq,>X %;td> O;qddCCCCCCCCCCCCCC",
"CCCCCCCCCCCCCCddq-O     odt;-    dd    %;ed> O-qddCCCCCCCCCCCCCC",
"CCCCCCCCCCCCCCri0qwy:  o=dd0q>>  >>  .O<q,>6ywqwaiCCCCCCCCCCCCCC",
"CCCCCCCCCCCCCCCCwdbVy .;8dddddi      %;td@ uVbdwCCCCCCCCCCCCCCCC",
"CCCCCCCCCCCCCCCCwdfj,  O$>>>>>>      ,qdd@ 2kfdrCCCCCCCCCCCCCCCC",
"CCCCCCCCCCCCCCCCwdq-%                9ddd@ O-qdwCCCCCCCCCCCCCCCC",
"CCCCCCCCCCCCCCCCrdq-O    oo        ..wdt0O O-qirCCCCCCCCCCCCCCCC",
"CCCCCCCCCCCCCCCCrdq;O   Od9        --ed+   @-qdrCCCCCCCCCCCCCCCC",
"CCCCCCCCCCCCCCCC5iq8&.. +dwX.  X...-;ed$   &80irCCCCCCCCCCCCCCCC",
"CCCCCCCCCCCCCCCCCCrd9;% +dt--  ----;;ed@ %-qdtCCCCCCCCCCCCCCCCCC",
"CCCCCCCCCCCCCCCCCCplq=% ow9%%  <<<<889wo %;qdiCCCCCCCCCCCCCCCCCC",
"CCCCCCCCCCCCCCCCCCvVh;%        dddddd+   %;qdrCCCCCCCCCCCCCCCCCC",
"CCCCCCCCCCCCCCCCCCmVh;%        dddddd+   %-qdiCCCCCCCCCCCCCCCCCC",
"CCCCCCCCCCCCCCCCCCCCisa=%        .   xVq-tstCCCCCCCCCCCCCCCCCCCC",
"CCCCCCCCCCCCCCCCCCCCide;O            xVt-tdtCCCCCCCCCCCCCCCCCCCC",
"CCCCCCCCCCCCCCCCCCCCida-%        BV    =-tdtCCCCCCCCCCCCCCCCCCCC",
"CCCCCCCCCCCCCCCCCCCCidt;%        VV    %-tdtCCCCCCCCCCCCCCCCCCCC",
"CCCCCCCCCCCCCCCCCCCCCC5dkBb;==;=;<;----td5CCCCCCCCCCCCCCCCCCCCCC",
"CCCCCCCCCCCCCCCCCCCCCC4dkVm;;;;;;;;;;-;ed5CCCCCCCCCCCCCCCCCCCCCC",
"CCCCCCCCCCCCCCCCCCCCCCCCCdddddaaadaddsdCCCCCCCCCCCCCCCCCCCCCCCCC",
"CCCCCCCCCCCCCCCCCCCCCCCCCdddddddsddddddCCCCCCCCCCCCCCCCCCCCCCCCC",
"CCCCCCCCCCCCCCCCCCCCCCCCCCCCCCCCCCCCCCCCCCCCCCCCCCCCCCCCCCCCCCCC"
};
