/* XPM */
static char *result[] = {
/* columns rows colors chars-per-pixel */
"64 64 58 1 ",
"  c #203729",
". c #21382A",
"X c #27422E",
"o c #28422F",
"O c #2B4433",
"+ c #2D4B32",
"@ c #304737",
"# c #304937",
"$ c #34473B",
"% c #334B3A",
"& c #335436",
"* c #355339",
"= c #39523E",
"- c #375A39",
"; c #395E3B",
": c #3C603E",
"> c #3C4E43",
", c #3E5643",
"< c #3E5B42",
"1 c #3F6241",
"2 c #435646",
"3 c #415B45",
"4 c #475748",
"5 c #455A49",
"6 c #4A5C4C",
"7 c #4C5D51",
"8 c #426443",
"9 c #4B644E",
"0 c #4A694B",
"q c #4D6451",
"w c #4F6A52",
"e c #516552",
"r c #526C54",
"t c #56625B",
"y c #58635C",
"u c #566D58",
"i c #5B6E5C",
"p c #557057",
"a c #57715A",
"s c #59735B",
"d c #5F7561",
"f c #636F65",
"g c #637564",
"h c #667568",
"j c #677968",
"k c #6A7B6B",
"l c #6F7672",
"z c #717773",
"x c #727E73",
"c c #7E7E7E",
"v c #748075",
"b c #778178",
"n c #7A837A",
"m c #7F8680",
"M c #818781",
"N c #878988",
"B c #8C8C8C",
"V c None",
/* pixels */
"VVVVVVVVVVVVVVVVVVVVVVVVVVVVVVVVVVVVVVVVVVVVVVVVVVVVVVVVVVVVVVVV",
"VVVVVVVVVVVVVVVVVVVVVVVVVssssssssssssssVVVVVVVVVVVVVVVVVVVVVVVVV",
"VVVVVVVVVVVVVVVVVVVVVVVVVsssssaasaapaps6VVVVVVVVVVVVVVVVVVVVVVVV",
"VVVVVVVVVVVVVVVVVVVVVVVsr:rBB;;;;;:;:::rs6VVVVVVVVVVVVVVVVVVVVVV",
"VVVVVVVVVVVVVVVVVVVVVV9pw:0NN:;;;;;;;;;0a5VVVVVVVVVVVVVVVVVVVVVV",
"VVVVVVVVVVVVVVVVVVVVusw:&...... ....  .&:rsuVVVVVVVVVVVVVVVVVVVV",
"VVVVVVVVVVVVVVVVVVVVusp:&............ .&;rsuVVVVVVVVVVVVVVVVVVVV",
"VVVVVVVVVVVVVVVVVVVVus0;&..........BB,.&;rsuVVVVVVVVVVVVVVVVVVVV",
"VVVVVVVVVVVVVVVVVVVVesr:&..........NN>.&;wsrVVVVVVVVVVVVVVVVVVVV",
"VVVVVVVVVVVVVVVVVVusw;&......... ....... &;0suVVVVVVVVVVVVVVVVVV",
"VVVVVVVVVVVVVVVVVVrs0;&..................&;0seVVVVVVVVVVVVVVVVVV",
"VVVVVVVVVVVVVVVVVVes0;&. .O9qqqqqqqqqO. .fnksuVVVVVVVVVVVVVVVVVV",
"VVVVVVVVVVVVVVVVVVrs0<&. .#ssssssssss#...zBxswVVVVVVVVVVVVVVVVVV",
"VVVVVVVVVVVVVVVVqalMqXX Oq918118888sswqO.$>,19uqVVVVVVVVVVVVVVVV",
"VVVVVVVVVVVVVVVVqsvBt. .#ar:;;;:;;;ssds@...+;0sqVVVVVVVVVVVVVVVV",
"VVVVVVVVVVVVVVVV9dp0>.O901<XXoo.o;;88rswqO.+;0seVVVVVVVVVVVVVVVV",
"VVVVVVVVVVVVVVVVqs0;+.@sr;& .... :-::rsss@ +;0seVVVVVVVVVVVVVVVV",
"VVVVVVVVVVVVVVVVes0;+.O08+O .... X+::80ps+.+;0seVVVVVVVVVVVVVVVV",
"VVVVVVVVVVVVVVVVqs0;#.o;&  ... . . ::-:wsO.+;0seVVVVVVVVVVVVVVVV",
"VVVVVVVVVVVVVVuu90;+X..+O....... . ++-:8022*+ebguuVVVVVVVVVVVVVV",
"VVVVVVVVVVVVVVss0:+.............. ...&;;:ps,.tBvssVVVVVVVVVVVVVV",
"VVVVVVVVVVVVVVssdg2.......O,,2;..++;,#+-;80*.2gdssVVVVVVVVVVVVVV",
"VVVVVVVVVVVVVVasvBy.......+asssX ::as@.&;:;+.+;0ssVVVVVVVVVVVVVV",
"VVVVVVVVVVVVVVp0gz6X.....O,rrr0  ::au,+-;18%.O&8rrVVVVVVVVVVVVVV",
"VVVVVVVVVVVVss8:+.+;+ ..@sr;-:-  ::psss1:0s,...+:8ssVVVVVVVVVVVV",
"VVVVVVVVVVVVss8:+.+&+.. +r0::&&  &-0ras8:808%%>,;8ssVVVVVVVVVVVV",
"VVVVVVVVVVVVss:;+   ..  X:;;:      ::rs8:::0svBg;8ssVVVVVVVVVVVV",
"VVVVVVVVVVVVss8:+.. .XX X&&&&XX   .::pa1&-:0sjzu;8ssVVVVVVVVVVVV",
"VVVVVVVVVVVVss8:+...+:&    ..:: ...;:0s+.&:0s, +:8saVVVVVVVVVVVV",
"VVVVVVVVVVVVss:;#...+:&   .. ::....;:0s#.&:8s,.+;1ssVVVVVVVVVVVV",
"VVVVVVVVVVVVss8;gBy.=sr;&  . ......;:ws# &;;:0s0:8ssVVVVVVVVVVVV",
"VVVVVVVVVVVVss8:gBt.,sp:& .. ......;:rs# &;;:0p0:8ssVVVVVVVVVVVV",
"VVVVVVVVVVVVas::+ X <s0:&....... ..;;;;ws@.+;0svBmssVVVVVVVVVVVV",
"VVVVVVVVVVVVss8;+   ,s0-&..... ....;;;;ps@.+;0sxBmssVVVVVVVVVVVV",
"VVVVVVVVVVVVss8:+ +:::::&........... &;ws#.+;0s0:8ssVVVVVVVVVVVV",
"VVVVVVVVVVVVss8:+ X:-::-&. ...... .  &:rs+.+;0s0:8saVVVVVVVVVVVV",
"VVVVVVVVVVVVssxb9.XX+:::&.X&&        &::1O.=p2#*::ssVVVVVVVVVVVV",
"VVVVVVVVVVVVssmBt   +;:;&.X;:.  .   .&::;X.,a,.+:8ssVVVVVVVVVVVV",
"VVVVVVVVVVVVssrw*...;r0--&+XX..... &&-::;X.,s,.+:1ssVVVVVVVVVVVV",
"VVVVVVVVVVVVss8;+...,s0:::&....... -:-:-:o.,s,.+::ssVVVVVVVVVVVV",
"VVVVVVVVVVVVVVrr8&O.X+,w0:;&&    -&:;0w%o..O@%&1prVVVVVVVVVVVVVV",
"VVVVVVVVVVVVVVss0;+ ..@sr:;;:   .::-:rs+.....+:0asVVVVVVVVVVVVVV",
"VVVVVVVVVVVVVVus0;+...@up0000..++0100,,X.%,O.+;0ssVVVVVVVVVVVVVV",
"VVVVVVVVVVVVVVss0;+...@sssssp. ::ssss+. .qs,.+;0ssVVVVVVVVVVVVVV",
"VVVVVVVVVVVVVVeu90wt> .5,,5ss. 00;,,,++++,,7tw09uuVVVVVVVVVVVVVV",
"VVVVVVVVVVVVVVVVqsvBy... .@ss  sa....&::;X.yBxseVVVVVVVVVVVVVVVV",
"VVVVVVVVVVVVVVVVqsdg9+O. .o23 .3<....&:80O.5hdsqVVVVVVVVVVVVVVVV",
"VVVVVVVVVVVVVVVVws0-;:&...... .......&:wsO.+;0seVVVVVVVVVVVVVVVV",
"VVVVVVVVVVVVVVVVes0;18;XXXX.    .. Xo;8us@.+;0ueVVVVVVVVVVVVVVVV",
"VVVVVVVVVVVVVVVVes0;0sw:;;&.   . ..;;rsss+.+;0seVVVVVVVVVVVVVVVV",
"VVVVVVVVVVVVVVVV6u080r08:;&XXXXXoXo81rsrq#X*89u9VVVVVVVVVVVVVVVV",
"VVVVVVVVVVVVVVVVVVes0;8sr:;;;;;:;;;ssss@.&;0seVVVVVVVVVVVVVVVVVV",
"VVVVVVVVVVVVVVVVVVik0:8sp1888881888ssrqO.&;0suVVVVVVVVVVVVVVVVVV",
"VVVVVVVVVVVVVVVVVVcBg:8sssssssssasass#...&;0seVVVVVVVVVVVVVVVVVV",
"VVVVVVVVVVVVVVVVVVnBg:8ssssssssasdsss#.. &;0suVVVVVVVVVVVVVVVVVV",
"VVVVVVVVVVVVVVVVVVVVup0:&.%sassss....zN9;rsrVVVVVVVVVVVVVVVVVVVV",
"VVVVVVVVVVVVVVVVVVVVusw:&.@psssss....zBr;rsuVVVVVVVVVVVVVVVVVVVV",
"VVVVVVVVVVVVVVVVVVVVusp;&.. ... .NB....*;rsuVVVVVVVVVVVVVVVVVVVV",
"VVVVVVVVVVVVVVVVVVVVusr:&.  ..  .BB....-;rsuVVVVVVVVVVVVVVVVVVVV",
"VVVVVVVVVVVVVVVVVVVVVV6sgBv:::;;:::;;;;rs5VVVVVVVVVVVVVVVVVVVVVV",
"VVVVVVVVVVVVVVVVVVVVVV5skBn:::::::;::;:ws6VVVVVVVVVVVVVVVVVVVVVV",
"VVVVVVVVVVVVVVVVVVVVVVVVVssaaspppaaspssVVVVVVVVVVVVVVVVVVVVVVVVV",
"VVVVVVVVVVVVVVVVVVVVVVVVVssssssspssssssVVVVVVVVVVVVVVVVVVVVVVVVV",
"VVVVVVVVVVVVVVVVVVVVVVVVVVVVVVVVVVVVVVVVVVVVVVVVVVVVVVVVVVVVVVVV"
};
