/* XPM */
static char *result[] = {
/* columns rows colors chars-per-pixel */
"64 64 56 1 ",
"  c #21382A",
". c #27422E",
"X c #28422F",
"o c #2C4533",
"O c #2D4B32",
"+ c #304737",
"@ c #304837",
"# c #34473B",
"$ c #324A39",
"% c #335536",
"& c #355439",
"* c #39523E",
"= c #375B39",
"- c #395E3B",
"; c #3C603D",
": c #3C4E43",
"> c #3E5643",
", c #3E5A42",
"< c #3F6241",
"1 c #435546",
"2 c #415B46",
"3 c #49574E",
"4 c #445848",
"5 c #4B5D4D",
"6 c #4C5D51",
"7 c #426443",
"8 c #47634A",
"9 c #4B644E",
"0 c #4A694B",
"q c #4E6451",
"w c #4F6A51",
"e c #516552",
"r c #526C54",
"t c #56625B",
"y c #58635C",
"u c #566D58",
"i c #5A6E5B",
"p c #59735B",
"a c #5F7561",
"s c #636F65",
"d c #637564",
"f c #667568",
"g c #677968",
"h c #6A7B6B",
"j c #6F7571",
"k c #717773",
"l c #727E73",
"z c #7E7E7E",
"x c #748075",
"c c #778178",
"v c #7A837A",
"b c #7F8680",
"n c #818781",
"m c #878988",
"M c #8C8D8C",
"N c None",
/* pixels */
"NNNNNNNNNNNNNNNNNNNNNNNNNNNNNNNNNNNNNNNNNNNNNNNNNNNNNNNNNNNNNNNN",
"NNNNNNNNNNNNNNNNNNNNNNNNNppppppppppppppNNNNNNNNNNNNNNNNNNNNNNNNN",
"NNNNNNNNNNNNNNNNNNNNNNNNNpppppuuppprpppNNNNNNNNNNNNNNNNNNNNNNNNN",
"NNNNNNNNNNNNNNNNNNNNNNNpr;rMm;;-;;;=;;;rpNNNNNNNNNNNNNNNNNNNNNNN",
"NNNNNNNNNNNNNNNNNNNNNN9pw;0mm;----;;;;=0p5NNNNNNNNNNNNNNNNNNNNNN",
"NNNNNNNNNNNNNNNNNNNNupr;%              %;rpuNNNNNNNNNNNNNNNNNNNN",
"NNNNNNNNNNNNNNNNNNNNupr;%              %-rpuNNNNNNNNNNNNNNNNNNNN",
"NNNNNNNNNNNNNNNNNNNNupw-%          mm> %-rpuNNNNNNNNNNNNNNNNNNNN",
"NNNNNNNNNNNNNNNNNNNNepw;%          Mm: %-wpwNNNNNNNNNNNNNNNNNNNN",
"NNNNNNNNNNNNNNNNNNup0-%      ;;pppppa+   %-wpeNNNNNNNNNNNNNNNNNN",
"NNNNNNNNNNNNNNNNNNwp0-%      ;;pppppp@   %-0puNNNNNNNNNNNNNNNNNN",
"NNNNNNNNNNNNNNNNNNep0;% o9908;;<<777<0qo svhpeNNNNNNNNNNNNNNNNNN",
"NNNNNNNNNNNNNNNNNNea0;% +appp;;=;;---wp@ jMxpwNNNNNNNNNNNNNNNNNN",
"NNNNNNNNNNNNNNNN9plbe.$98<<<<......-;<7. ::,<0uqNNNNNNNNNNNNNNNN",
"NNNNNNNNNNNNNNNNqpxMy +pw;--=      ;;;=.   o-0aqNNNNNNNNNNNNNNNN",
"NNNNNNNNNNNNNNNNwar0: @pw;%..%%  %%..%;79X o-0pqNNNNNNNNNNNNNNNN",
"NNNNNNNNNNNNNNNNqp0;O opw<%  ;;  ;;  %;wp+ O-0peNNNNNNNNNNNNNNNN",
"NNNNNNNNNNNNNNNNep0-O o0<oX  OO  OO  %;70o O;0peNNNNNNNNNNNNNNNN",
"NNNNNNNNNNNNNNNNqp0;O .-%            %;;-. O-0peNNNNNNNNNNNNNNNN",
"NNNNNNNNNNNNNNuu00-@X  Oo            .O%->>&OecfuuNNNNNNNNNNNNNN",
"NNNNNNNNNNNNNNpp0-O                    %-rp, tMxppNNNNNNNNNNNNNN",
"NNNNNNNNNNNNNNppad1 .OO   X>>,,<*      %-wp> 1dpppNNNNNNNNNNNNNN",
"NNNNNNNNNNNNNNppxMt O-%   @pppppp      %;rp> O-0ppNNNNNNNNNNNNNN",
"NNNNNNNNNNNNNNrwdk3 O-%  +>rrww0roo    O%0r* o%7rwNNNNNNNNNNNNNN",
"NNNNNNNNNNNNpp7;O   O;% @pr;;=;;;pp      %;O   O;7ppNNNNNNNNNNNN",
"NNNNNNNNNNNNpp7;O  .O%O or0;;%%=;rrO@    %=%@$:,;7ppNNNNNNNNNNNN",
"NNNNNNNNNNNNpp;=O O;O   .;;;;  ;;;;pp@   %;0pxMd-7ppNNNNNNNNNNNN",
"NNNNNNNNNNNNpp7;O O%o  @O;=%O  O%%%0ro   %-0pfku-7ppNNNNNNNNNNNN",
"NNNNNNNNNNNNpp7;O     @pw;%        -;X   %;0u> O;7ppNNNNNNNNNNNN",
"NNNNNNNNNNNNpp7=O     ouw;%        --X   %-0p> O-<ppNNNNNNNNNNNN",
"NNNNNNNNNNNNpp7;dMt     .;%              %-0p, O;7ppNNNNNNNNNNNN",
"NNNNNNNNNNNNpp7;dMt     .;%              %-0p> O;7ppNNNNNNNNNNNN",
"NNNNNNNNNNNNpp7;O     .=;=O      ==    %---0u, tmbppNNNNNNNNNNNN",
"NNNNNNNNNNNNpp7-O     .;=;%      ;;    %---0p> tMnppNNNNNNNNNNNN",
"NNNNNNNNNNNNpp7-O O;O .;%        -;ppo   %-0p> O;7ppNNNNNNNNNNNN",
"NNNNNNNNNNNNpp7;O O=O .<%        --ppO   %-0p> O;7ppNNNNNNNNNNNN",
"NNNNNNNNNNNNpplc6  .   ..        --pp@   %=0u> O;<ppNNNNNNNNNNNN",
"NNNNNNNNNNNNppbMt                --pp@   &-8p> O;7ppNNNNNNNNNNNN",
"NNNNNNNNNNNNpprw*   $9>      %%  --pp+   %-&@o O;7ppNNNNNNNNNNNN",
"NNNNNNNNNNNNpp7-O   >p8      =;  --ppo   %-O   O;;ppNNNNNNNNNNNN",
"NNNNNNNNNNNNNNrr<%. ,pw%O o99-=%&--+o  $%0w* .%7rwNNNNNNNNNNNNNN",
"NNNNNNNNNNNNNNpp0;O >pw;% $pp;;;---    %;rp, O-0ppNNNNNNNNNNNNNN",
"NNNNNNNNNNNNNNpp0;O +,,0,  >,08;-00    %;rp, O-0ppNNNNNNNNNNNNNN",
"NNNNNNNNNNNNNNpp0;O   +pq    pp;;pp    %;rp> O-0ppNNNNNNNNNNNNNN",
"NNNNNNNNNNNNNNuu80qy: +p9    >>OO>>  XO70,>6tq09eeNNNNNNNNNNNNNN",
"NNNNNNNNNNNNNNNNqaxMt +p0            %;rpo tMxpeNNNNNNNNNNNNNNNN",
"NNNNNNNNNNNNNNNNqaaa> +pwO.          oO*2o 4gapeNNNNNNNNNNNNNNNN",
"NNNNNNNNNNNNNNNN9p0<O +pw;%                O-0peNNNNNNNNNNNNNNNN",
"NNNNNNNNNNNNNNNNqp0-O @pr;%  ..  XX+@      O-0ieNNNNNNNNNNNNNNNN",
"NNNNNNNNNNNNNNNNqp0-O @pr-%  ;;  --pio     @-0peNNNNNNNNNNNNNNNN",
"NNNNNNNNNNNNNNNN9i07&.@997-..%%.X--90o   . %70u9NNNNNNNNNNNNNNNN",
"NNNNNNNNNNNNNNNNNNep0=% @ur-=  ;---      %-0peNNNNNNNNNNNNNNNNNN",
"NNNNNNNNNNNNNNNNNNsg0;% oqq<<..<77<      %-0peNNNNNNNNNNNNNNNNNN",
"NNNNNNNNNNNNNNNNNNzMd;%   @pp;;pppp      %-0puNNNNNNNNNNNNNNNNNN",
"NNNNNNNNNNNNNNNNNNvMd;%   opp;;pppp      %-0puNNNNNNNNNNNNNNNNNN",
"NNNNNNNNNNNNNNNNNNNNupw-%            jM0;wieNNNNNNNNNNNNNNNNNNNN",
"NNNNNNNNNNNNNNNNNNNNupr;O            kMr-wpeNNNNNNNNNNNNNNNNNNNN",
"NNNNNNNNNNNNNNNNNNNNupr;%        MM    &;rprNNNNNNNNNNNNNNNNNNNN",
"NNNNNNNNNNNNNNNNNNNNupr-%        MM    =-rpuNNNNNNNNNNNNNNNNNNNN",
"NNNNNNNNNNNNNNNNNNNNNN9pgmx;==;=;<-----ri4NNNNNNNNNNNNNNNNNNNNNN",
"NNNNNNNNNNNNNNNNNNNNNN5pgMv;;;;;;=;;--;wp4NNNNNNNNNNNNNNNNNNNNNN",
"NNNNNNNNNNNNNNNNNNNNNNNNNppppprppppppipNNNNNNNNNNNNNNNNNNNNNNNNN",
"NNNNNNNNNNNNNNNNNNNNNNNNNppppppppppppppNNNNNNNNNNNNNNNNNNNNNNNNN",
"NNNNNNNNNNNNNNNNNNNNNNNNNNNNNNNNNNNNNNNNNNNNNNNNNNNNNNNNNNNNNNNN"
};
