/* XPM */
static char *result[] = {
/* columns rows colors chars-per-pixel */
"64 64 148 2 ",
"   c #128E3F",
".  c #159C3E",
"X  c #17A53C",
"o  c #18A63D",
"O  c #19AF3A",
"+  c #1BBB37",
"@  c #1CBB38",
"#  c #20B83E",
"$  c #1DC036",
"%  c #1FD232",
"&  c #21DE2E",
"*  c #23C73B",
"=  c #27C93F",
"-  c #29CA3F",
";  c #20D232",
":  c #21DA31",
">  c #24E72E",
",  c #24EA2C",
"<  c #27E731",
"1  c #26EA30",
"2  c #2BEA32",
"3  c #35EB3E",
"4  c #38ED3F",
"5  c #128D41",
"6  c #198F46",
"7  c #198F48",
"8  c #149043",
"9  c #199345",
"0  c #159840",
"q  c #1F9B4A",
"w  c #209B4A",
"e  c #1CA641",
"r  c #20A746",
"t  c #22A847",
"y  c #25A24D",
"u  c #26A84B",
"i  c #29AA4F",
"p  c #2ABA48",
"a  c #31BF4E",
"s  c #29A750",
"d  c #2CA951",
"f  c #38BE53",
"g  c #3CBE5B",
"h  c #3BA162",
"j  c #3FA962",
"k  c #4BA86F",
"l  c #5EB264",
"z  c #50BF6A",
"x  c #4FAA73",
"c  c #50A972",
"v  c #63BC6A",
"b  c #27C041",
"n  c #28CA40",
"m  c #31C04D",
"M  c #32CA4A",
"N  c #32D645",
"B  c #31DB41",
"V  c #3BD84F",
"C  c #39C256",
"Z  c #3CCD52",
"A  c #37EE40",
"S  c #39EE42",
"D  c #3FE44E",
"F  c #42CA58",
"G  c #47D15E",
"H  c #4ADA5F",
"J  c #40F049",
"K  c #4DE25D",
"L  c #4FEC5C",
"P  c #51EC5B",
"I  c #4CF256",
"U  c #4DF258",
"Y  c #50F35A",
"T  c #44C461",
"R  c #54C06D",
"E  c #4DDC61",
"W  c #4FD069",
"Q  c #50D169",
"!  c #5ADD6F",
"~  c #5CDE71",
"^  c #65C16D",
"/  c #66CE6E",
"(  c #6AC872",
")  c #65C47F",
"_  c #69D672",
"`  c #6CDB75",
"'  c #67DA79",
"]  c #6EDE79",
"[  c #70DF7A",
"{  c #54E363",
"}  c #59E662",
"|  c #5CEE62",
" . c #5BE46D",
".. c #5DF467",
"X. c #5FF569",
"o. c #5FF86A",
"O. c #60EE6B",
"+. c #61F66A",
"@. c #63E675",
"#. c #6CE177",
"$. c #6EE079",
"%. c #6FEB7A",
"&. c #72E47C",
"*. c #71EC7B",
"=. c #67F470",
"-. c #69F773",
";. c #69F875",
":. c #6FF97A",
">. c #72F57E",
",. c #73F97E",
"<. c #6BC284",
"1. c #75C38D",
"2. c #78CF8D",
"3. c #74F580",
"4. c #74F980",
"5. c #7BF985",
"6. c #7DF988",
"7. c #85C39D",
"8. c #89C59F",
"9. c #8ADE91",
"0. c #84F68C",
"q. c #8FEA9B",
"w. c #8FF494",
"e. c #91F395",
"r. c #96F49B",
"t. c #95FA9E",
"y. c #9ADCA7",
"u. c #9AECA3",
"i. c #9BFAA3",
"p. c #ABF5B2",
"a. c #AFF8B4",
"s. c #B7FABD",
"d. c #B9FBBF",
"f. c #BDDEC9",
"g. c #BFE0CB",
"h. c #BEF5C2",
"j. c #BBFBC1",
"k. c #C4F8C7",
"l. c #CAF9CC",
"z. c #D7FCDB",
"x. c #DBFCDD",
"c. c #DFE1E0",
"v. c #E1E2E2",
"b. c #EFF8F1",
"n. c #F4F9F6",
"m. c #F7FDF8",
"M. c #FCFDFC",
"N. c None",
/* pixels */
"N.N.N.N.N.N.N.N.N.N.N.N.N.N.N.N.N.N.N.N.N.N.N.N.N.N.N.N.N.N.N.N.N.N.N.N.N.N.N.N.N.N.N.N.N.N.N.N.N.N.N.N.N.N.N.N.N.N.N.N.N.N.N.N.",
"N.N.N.N.N.N.N.N.N.N.N.N.N.N.N.N.N.N.N.N.N.N.N.N.N.4.,.,.,.,.,.,.,.,.,.,.,.,.4.N.N.N.N.N.N.N.N.N.N.N.N.N.N.N.N.N.N.N.N.N.N.N.N.N.",
"N.N.N.N.N.N.N.N.N.N.N.N.N.N.N.N.N.N.N.N.N.N.N.N.N.>.,.5.5.:.:.:.,.:.:.:.:.:.,.^ N.N.N.N.N.N.N.N.N.N.N.N.N.N.N.N.N.N.N.N.N.N.N.N.",
"N.N.N.N.N.N.N.N.N.N.N.N.N.N.N.N.N.N.N.N.N.N.N.,.X., ..M.m.1 , , , , , , , , , o.4.^ N.N.N.N.N.N.N.N.N.N.N.N.N.N.N.N.N.N.N.N.N.N.",
"N.N.N.N.N.N.N.N.N.N.N.N.N.N.N.N.N.N.N.N.N.N.( ,.o., } n.b.< > > > > 1 1 , > > o.,.^ N.N.N.N.N.N.N.N.N.N.N.N.N.N.N.N.N.N.N.N.N.N.",
"N.N.N.N.N.N.N.N.N.N.N.N.N.N.N.N.N.N.N.N.*.4.+., %   5 5 5 5 5 5 5 5 5 5 5 5   % , o.,.&.N.N.N.N.N.N.N.N.N.N.N.N.N.N.N.N.N.N.N.N.",
"N.N.N.N.N.N.N.N.N.N.N.N.N.N.N.N.N.N.N.N.&.4.X., ;   5 5 5 5 5 5 5 5 5 7 9 5 5 % , +.,.&.N.N.N.N.N.N.N.N.N.N.N.N.N.N.N.N.N.N.N.N.",
"N.N.N.N.N.N.N.N.N.N.N.N.N.N.N.N.N.N.N.N.&.,.o., %   5 5 5 5 5 5 5 5 5 n.M.x   % , +.,.&.N.N.N.N.N.N.N.N.N.N.N.N.N.N.N.N.N.N.N.N.",
"N.N.N.N.N.N.N.N.N.N.N.N.N.N.N.N.N.N.N.N.] ,.o., % 5 5 5 5 5 5 5 5 5 5 n.m.x 5 % > X.:.#.N.N.N.N.N.N.N.N.N.N.N.N.N.N.N.N.N.N.N.N.",
"N.N.N.N.N.N.N.N.N.N.N.N.N.N.N.N.N.N.$.4.I , ;   5 5 5 5 5 5 5 5 5 5 5 4.,.d 5 5 5 % > I 4.&.N.N.N.N.N.N.N.N.N.N.N.N.N.N.N.N.N.N.",
"N.N.N.N.N.N.N.N.N.N.N.N.N.N.N.N.N.N.] ,.I , ;   5 5 5 5 5 5 5 5 5 5 8 >.,.d 5 5 9 ; 1 I ,.[ N.N.N.N.N.N.N.N.N.N.N.N.N.N.N.N.N.N.",
"N.N.N.N.N.N.N.N.N.N.N.N.N.N.N.N.N.N.] 4.I , ;   5 5 5 5 5 ~  .8 5 5 5 u d Q ~ y 5 y.l.i.,.$.N.N.N.N.N.N.N.N.N.N.N.N.N.N.N.N.N.N.",
"N.N.N.N.N.N.N.N.N.N.N.N.N.N.N.N.N.N.] 5.I > % 5 5 5 5 5 9 >.,.5 5 5 5 5 5 ! ,.d 5 g.M.s.>.` N.N.N.N.N.N.N.N.N.N.N.N.N.N.N.N.N.N.",
"N.N.N.N.N.N.N.N.N.N.N.N.N.N.N.N./ >.p.x.2.X . 5 w ~ ~ ~ ~ 4.,.8 5 5 5 % % 3 S o 5 h k Z A P *._ N.N.N.N.N.N.N.N.N.N.N.N.N.N.N.N.",
"N.N.N.N.N.N.N.N.N.N.N.N.N.N.N.N._ 4.s.M.8.5 5 5 d ,.3.,.>.>.>.5 5 5 5 > > , , o 5   5 + > I ,._ N.N.N.N.N.N.N.N.N.N.N.N.N.N.N.N.",
"N.N.N.N.N.N.N.N.N.N.N.N.N.N.N.N._ ,.=.| f 5 y ~ { S S S A d s   5 5 5 X X % , K ' y 5 + , I ,._ N.N.N.N.N.N.N.N.N.N.N.N.N.N.N.N.",
"N.N.N.N.N.N.N.N.N.N.N.N.N.N.N.N._ 4.I , @ 5 d ,..., , , , 5 5 5 5 5 5 5 5 ; 1 ..3.d 5 + , I ,._ N.N.N.N.N.N.N.N.N.N.N.N.N.N.N.N.",
"N.N.N.N.N.N.N.N.N.N.N.N.N.N.N.N._ ,.I , + 5 d ,.+., & @ @ 5 5 5 5   5 5 5 % > S I e 5 @ , I ,._ N.N.N.N.N.N.N.N.N.N.N.N.N.N.N.N.",
"N.N.N.N.N.N.N.N.N.N.N.N.N.N.N.N._ ,.I , + 5 d ,..., ; 5 5 5 5 5 5 5 5 5 5 % , , > X 5 @ , I ,._ N.N.N.N.N.N.N.N.N.N.N.N.N.N.N.N.",
"N.N.N.N.N.N.N.N.N.N.N.N.N.N.&.&.} I N @ a T G I D + O 5 5 5 5 5 5 5 8 + $ @ @ < > Z F a + ] d.u.*.&.N.N.N.N.N.N.N.N.N.N.N.N.N.N.",
"N.N.N.N.N.N.N.N.N.N.N.N.N.N.3.,.I , @ 5 T ,.X., %   5 5 5 5 5     5 5 < , X 5 ; , o.4.T 5 7.M.d.,.,.N.N.N.N.N.N.N.N.N.N.N.N.N.N.",
"N.N.N.N.N.N.N.N.N.N.N.N.N.N.3.,.0.r.z 5 T ,.+., % 5 5 5 5 5 5 5 5 5 5 + @ . 5 ; , o.,.T 5 z e.0.,.3.N.N.N.N.N.N.N.N.N.N.N.N.N.N.",
"N.N.N.N.N.N.N.N.N.N.N.N.N.N.>.,.d.M.8.5 T ,.o., ; 5 5 5 5       5 5 5 5 5 5 8 ; , +.,.T   + , I ,.,.N.N.N.N.N.N.N.N.N.N.N.N.N.N.",
"N.N.N.N.N.N.N.N.N.N.N.N.N.N.+.o.9.k.1.d W ,...; + 5 5 5 5 . X X X X X s d 9 5 ; , U X.C   O ; V +.O.N.N.N.N.N.N.N.N.N.N.N.N.N.N.",
"N.N.N.N.N.N.N.N.N.N.N.N.,.4.S , @ 6 z >.:.4.! 5 5 5 5 5 5 > , > , > , ,.,.d 5 % , , , +       + , S ,.4.N.N.N.N.N.N.N.N.N.N.N.N.",
"N.N.N.N.N.N.N.N.N.N.N.N.,.,.S , @ 5 T 3.-.o.E 5 5 5 5 5 5 ; ; ; % , > ,.,.d 5 + % > , - u k c Z , S ,.,.N.N.N.N.N.N.N.N.N.N.N.N.",
"N.N.N.N.N.N.N.N.N.N.N.N.,.,.4 , + 5 T >.U , % 5 5 5 5 5 5   5 5 5 , , ,.,.d 5 5   ; , I ,.s.M.q., S ,.,.N.N.N.N.N.N.N.N.N.N.N.N.",
"N.N.N.N.N.N.N.N.N.N.N.N.,.,.A , + 5 T 4.U , % 5 9 d d s d 5 5 5 5 % % X.X.C i 9   ; , I ,.u.k.[ , S ,.,.N.N.N.N.N.N.N.N.N.N.N.N.",
"N.N.N.N.N.N.N.N.N.N.N.N.,.,.S , + 5 T 4.I , % 5 d ,.4.,.>.5 5 5   5 8 , , X.3.d 8 ; , I 4.T 5 + , S ,.,.N.N.N.N.N.N.N.N.N.N.N.N.",
"N.N.N.N.N.N.N.N.N.N.N.N.,.,.S , + 5 T 4.I , % 8 d :.,.,.,.8   5 5   8 > , X.4.d   ; , I 4.T 5 + , S ,.,.N.N.N.N.N.N.N.N.N.N.N.N.",
"N.N.N.N.N.N.N.N.N.N.N.N.,.,.S , U 4.4.4.I , A >.X.1 S ,.>.8 5 5 5 5   > > X.4.s 5 ; , I ,.T 5 + , S ,.,.N.N.N.N.N.N.N.N.N.N.N.N.",
"N.N.N.N.N.N.N.N.N.N.N.N.,.,.S , U 4.4.4.I , A 4.X.> A ,.>.5 5 5 5 5 8 1 > ..,.d 5 ; , I ,.T 8 @ 1 S ,.,.N.N.N.N.N.N.N.N.N.N.N.N.",
"N.N.N.N.N.N.N.N.N.N.N.N.,.,.4 , @ 5 T ,.I , S ,.o.> %   5 5 5 5 5   5     % > X 5 ; , I ,.T   7.m.z.,.,.N.N.N.N.N.N.N.N.N.N.N.N.",
"N.N.N.N.N.N.N.N.N.N.N.N.,.,.S , + 5 T ,.I , S ,..., % 5 5 5 5   5 5 5 5 5 % > X 5 ; , I ,.T   7.M.z.,.,.N.N.N.N.N.N.N.N.N.N.N.N.",
"N.N.N.N.N.N.N.N.N.N.N.N.,.,.S , + 5 T 4.I , S ,.X., %     5 5 5 5 5 5 5 5 % , X 5 ; > I ,.T 5 # 2 S ,.,.N.N.N.N.N.N.N.N.N.N.N.N.",
"N.N.N.N.N.N.N.N.N.N.N.N.,.,.S , @ 5 F ,.I , S ,.+., $ 5 5 5 5 5 5 5   5 5 % , X 5 ; , I ,.T 5 + , S ,.,.N.N.N.N.N.N.N.N.N.N.N.N.",
"N.N.N.N.N.N.N.N.N.N.N.N.,.,.a.k.<.5 w d t X # S B X . 5 5 5 5 5 5 5 5 % % L X.u 5 ; , U 3.T 5 + , S ,.,.N.N.N.N.N.N.N.N.N.N.N.N.",
"N.N.N.N.N.N.N.N.N.N.N.N.,.5.x.M.8.5 5 5 5   X , ; 5 5   5 5   5 5 5 5 1 > ..,.d 5 ; , U 4.F 5 + , S ,.,.N.N.N.N.N.N.N.N.N.N.N.N.",
"N.N.N.N.N.N.N.N.N.N.N.N.,.,.+.| f 5 5 5 O ; ; , ;   5 5 5 5 5 5 5 % % X...:.,.d 5 ; , n d w 5 + , S ,.,.N.N.N.N.N.N.N.N.N.N.N.N.",
"N.N.N.N.N.N.N.N.N.N.N.N.4.>.S 1 + 5 5 5 + , , , ; 5 5 5   5 5 5 8 > 1 :.4.4.:.d 5 ; , @ 5 5 5 @ 1 S ,.,.N.N.N.N.N.N.N.N.N.N.N.N.",
"N.N.N.N.N.N.N.N.N.N.N.N.N.N.O.+.D % O 5 . X p ..U % $ 5 5 5   5 5 , , :.:.g d * % L X.C 5 O % D +.O.N.N.N.N.N.N.N.N.N.N.N.N.N.N.",
"N.N.N.N.N.N.N.N.N.N.N.N.N.N.>.,.I > + 5 5 5 d 3.o., % 8 5 5 5 5 8 , , :.4.i 5 % 1 o.,.T 5 + > I 4.>.N.N.N.N.N.N.N.N.N.N.N.N.N.N.",
"N.N.N.N.N.N.N.N.N.N.N.N.N.N.>.,.I , + 5 5 5 q T T I D + @ 5 5 5 5 I I T T q 5 % , o.,.T 5 + , I ,.>.N.N.N.N.N.N.N.N.N.N.N.N.N.N.",
"N.N.N.N.N.N.N.N.N.N.N.N.N.N.*.,.I , +   5 5 5 5 i 4..., > 5 5 5 5 4.>.9 5 5 5 % , o.,.T 5 + , I ,.3.N.N.N.N.N.N.N.N.N.N.N.N.N.N.",
"N.N.N.N.N.N.N.N.N.N.N.N.N.N.` $.K I ' 7.k 5 0 @ M 4.;.I I T g 5 8 T T 5 5 O @ D I G T <.7.' I } &.&.N.N.N.N.N.N.N.N.N.N.N.N.N.N.",
"N.N.N.N.N.N.N.N.N.N.N.N.N.N.N.N._ 4.j.M.8.5 X , A :.4.4.4.4.4.8 5 5 5 5 5 % 1 X.4.d 5 8.M.s.,.` N.N.N.N.N.N.N.N.N.N.N.N.N.N.N.N.",
"N.N.N.N.N.N.N.N.N.N.N.N.N.N.N.N._ 4.0.r.z 5 . + b T T T T T T 5 5 5 5 5 5 V I ;.4.d 5 R r.0.4._ N.N.N.N.N.N.N.N.N.N.N.N.N.N.N.N.",
"N.N.N.N.N.N.N.N.N.N.N.N.N.N.N.N._ 4.I > @ 5 5 5 5 5 5 5 5 5 5 5 5 5 5 5 5 ! :.4.,.d 5 + , I ,._ N.N.N.N.N.N.N.N.N.N.N.N.N.N.N.N.",
"N.N.N.N.N.N.N.N.N.N.N.N.N.N.N.N._ 4.I , + 5 5 5 9 s y 5 5 5 5 5 5 5 5 X X  .4.@.! y 5 + , I ,._ N.N.N.N.N.N.N.N.N.N.N.N.N.N.N.N.",
"N.N.N.N.N.N.N.N.N.N.N.N.N.N.N.N._ 4.I , + 5 5 5 s 3.! 5 5 5 5 5 5 5 8 1 1 ..,.d 5 5 5 + , I ,.` N.N.N.N.N.N.N.N.N.N.N.N.N.N.N.N.",
"N.N.N.N.N.N.N.N.N.N.N.N.N.N.N.N./ *.P S * X X 5 i 4. .X 0 8 5 e X X X , , o.,.d 5 . X = S P *./ N.N.N.N.N.N.N.N.N.N.N.N.N.N.N.N.",
"N.N.N.N.N.N.N.N.N.N.N.N.N.N.N.N.N.N._ ,.I , % 5 d 3..., > 5 5 1 > , > , , ..,.d 5 ; , I ,.` N.N.N.N.N.N.N.N.N.N.N.N.N.N.N.N.N.N.",
"N.N.N.N.N.N.N.N.N.N.N.N.N.N.N.N.N.N.9.t.o., ; 5 y ~ E % % 5 5 A 3 A A A 4 { ~ y 5 ; , I ,.[ N.N.N.N.N.N.N.N.N.N.N.N.N.N.N.N.N.N.",
"N.N.N.N.N.N.N.N.N.N.N.N.N.N.N.N.N.N.v.M.w., ; 5 5 5 5 5 8 5 5 3.:.:.,.,.,.d 5 5 5 ; , I ,.] N.N.N.N.N.N.N.N.N.N.N.N.N.N.N.N.N.N.",
"N.N.N.N.N.N.N.N.N.N.N.N.N.N.N.N.N.N.v.M.w., ; 8 5 5 5 5 5 5 8 4.,.4.4.4.,.d   5   % , I 4.&.N.N.N.N.N.N.N.N.N.N.N.N.N.N.N.N.N.N.",
"N.N.N.N.N.N.N.N.N.N.N.N.N.N.N.N.N.N.N.N.&.>.o., % 5 5 5 5 5 5 5 8 8 9 8 9 f.n.} > o.,.] N.N.N.N.N.N.N.N.N.N.N.N.N.N.N.N.N.N.N.N.",
"N.N.N.N.N.N.N.N.N.N.N.N.N.N.N.N.N.N.N.N.&.,.o., % 5 5 5 5 5 5 5 5 5 5 5 5 g.M.| , +.,.&.N.N.N.N.N.N.N.N.N.N.N.N.N.N.N.N.N.N.N.N.",
"N.N.N.N.N.N.N.N.N.N.N.N.N.N.N.N.N.N.N.N.&.,.o., % 5 5 5   5 5   5 n.n.6 5 6 7 ; , +.,.&.N.N.N.N.N.N.N.N.N.N.N.N.N.N.N.N.N.N.N.N.",
"N.N.N.N.N.N.N.N.N.N.N.N.N.N.N.N.N.N.N.N.&.4.+., ; 5 5 5 5 5   5 7 M.m.6 5 5 5 ; , +.,.&.N.N.N.N.N.N.N.N.N.N.N.N.N.N.N.N.N.N.N.N.",
"N.N.N.N.N.N.N.N.N.N.N.N.N.N.N.N.N.N.N.N.N.N.^ ,.r.n.h.< > > > > > 2 2 > 1 < , X.,.v N.N.N.N.N.N.N.N.N.N.N.N.N.N.N.N.N.N.N.N.N.N.",
"N.N.N.N.N.N.N.N.N.N.N.N.N.N.N.N.N.N.N.N.N.N.l 4.i.M.k.1 , , , , , , , , > , , X.4.v N.N.N.N.N.N.N.N.N.N.N.N.N.N.N.N.N.N.N.N.N.N.",
"N.N.N.N.N.N.N.N.N.N.N.N.N.N.N.N.N.N.N.N.N.N.N.N.N.6.4.:.:.,.:.:.:.:.,.,.:.:.,.N.N.N.N.N.N.N.N.N.N.N.N.N.N.N.N.N.N.N.N.N.N.N.N.N.",
"N.N.N.N.N.N.N.N.N.N.N.N.N.N.N.N.N.N.N.N.N.N.N.N.N.4.4.,.,.,.,.,.,.,.,.,.,.,.,.N.N.N.N.N.N.N.N.N.N.N.N.N.N.N.N.N.N.N.N.N.N.N.N.N.",
"N.N.N.N.N.N.N.N.N.N.N.N.N.N.N.N.N.N.N.N.N.N.N.N.N.N.N.N.N.N.N.N.N.N.N.N.N.N.N.N.N.N.N.N.N.N.N.N.N.N.N.N.N.N.N.N.N.N.N.N.N.N.N.N."
};
