/* XPM */
static char *result[] = {
/* columns rows colors chars-per-pixel */
"64 64 142 2 ",
"   c #128F3F",
".  c #159B3F",
"X  c #17A53C",
"o  c #18A53D",
"O  c #19AF3B",
"+  c #1BBB37",
"@  c #1AB13A",
"#  c #1CBB38",
"$  c #1DC037",
"%  c #1FCF33",
"&  c #1FD232",
"*  c #20D92F",
"=  c #27C93F",
"-  c #29CA3F",
";  c #20D233",
":  c #22DB31",
">  c #24E72E",
",  c #24EA2C",
"<  c #27E731",
"1  c #27EA30",
"2  c #2BEA32",
"3  c #35EE3D",
"4  c #128D41",
"5  c #198F46",
"6  c #198F48",
"7  c #149143",
"8  c #199346",
"9  c #159840",
"0  c #1F9B49",
"q  c #209B4A",
"w  c #1CA641",
"e  c #21A747",
"r  c #25A24D",
"t  c #26A84C",
"y  c #2AA84F",
"u  c #29B44B",
"i  c #2BBA48",
"p  c #29A750",
"a  c #2CA952",
"s  c #38BE53",
"d  c #36B558",
"f  c #39BE58",
"g  c #3BA162",
"h  c #3FA962",
"j  c #4BA86F",
"k  c #5BAE61",
"l  c #5DB163",
"z  c #50BF6A",
"x  c #4FAA73",
"c  c #50A972",
"v  c #63BC6A",
"b  c #28CA40",
"n  c #31C04D",
"m  c #2FDB40",
"M  c #32D645",
"N  c #39C256",
"B  c #3CCD52",
"V  c #3CD850",
"C  c #37ED40",
"Z  c #39EE42",
"A  c #3FE34E",
"S  c #42CA58",
"D  c #47D15F",
"F  c #40F049",
"G  c #4DE25D",
"H  c #4FED5C",
"J  c #52EC5B",
"K  c #4CF256",
"L  c #4EF258",
"P  c #50F35A",
"I  c #44C461",
"U  c #48C763",
"Y  c #54C06D",
"T  c #5ADD6F",
"R  c #5CDE71",
"E  c #68C66F",
"W  c #66CE6E",
"Q  c #69C671",
"!  c #6AC872",
"~  c #65C47F",
"^  c #69D672",
"/  c #6CDB75",
"(  c #67DA79",
")  c #6EDE79",
"_  c #70DF7A",
"`  c #53E363",
"'  c #59E662",
"]  c #5CEE62",
"[  c #5BE06F",
"{  c #5EEC6C",
"}  c #5DF467",
"|  c #5FF569",
" . c #5FF86A",
".. c #61EE6B",
"X. c #60F66B",
"o. c #6CE177",
"O. c #6EE079",
"+. c #6EEA78",
"@. c #72E57C",
"#. c #72EB7C",
"$. c #67F470",
"%. c #6FF97A",
"&. c #73F57E",
"*. c #73F97E",
"=. c #68B586",
"-. c #6BC284",
";. c #78CF8D",
":. c #74F580",
">. c #74F980",
",. c #7BF985",
"<. c #7DF988",
"1. c #85C39D",
"2. c #89C59F",
"3. c #8ADE91",
"4. c #84F68C",
"5. c #8FEA9B",
"6. c #8FF494",
"7. c #91F395",
"8. c #96F49B",
"9. c #95FA9E",
"0. c #9ADCA7",
"q. c #9AECA3",
"w. c #9BFAA3",
"e. c #ABF5B2",
"r. c #AFF8B4",
"t. c #B7FABD",
"y. c #B9FBBF",
"u. c #BDDEC9",
"i. c #BFE0CB",
"p. c #BEF5C2",
"a. c #BBFBC1",
"s. c #C4F8C7",
"d. c #CAF9CC",
"f. c #D7FCDB",
"g. c #DBFCDD",
"h. c #DFE1E0",
"j. c #E1E2E2",
"k. c #EFF8F1",
"l. c #F4F9F6",
"z. c #F7FDF8",
"x. c #FBFDFB",
"c. c None",
/* pixels */
"c.c.c.c.c.c.c.c.c.c.c.c.c.c.c.c.c.c.c.c.c.c.c.c.c.c.c.c.c.c.c.c.c.c.c.c.c.c.c.c.c.c.c.c.c.c.c.c.c.c.c.c.c.c.c.c.c.c.c.c.c.c.c.c.",
"c.c.c.c.c.c.c.c.c.c.c.c.c.c.c.c.c.c.c.c.c.c.c.c.c.>.*.*.*.*.*.*.*.*.*.*.*.*.>.c.c.c.c.c.c.c.c.c.c.c.c.c.c.c.c.c.c.c.c.c.c.c.c.c.",
"c.c.c.c.c.c.c.c.c.c.c.c.c.c.c.c.c.c.c.c.c.c.c.c.c.&.*.,.,.%.%.%.%.%.%.%.%.%.*.c.c.c.c.c.c.c.c.c.c.c.c.c.c.c.c.c.c.c.c.c.c.c.c.c.",
"c.c.c.c.c.c.c.c.c.c.c.c.c.c.c.c.c.c.c.c.c.c.c.*.| , } x.z.1 , , , , , , , , , X.>.c.c.c.c.c.c.c.c.c.c.c.c.c.c.c.c.c.c.c.c.c.c.c.",
"c.c.c.c.c.c.c.c.c.c.c.c.c.c.c.c.c.c.c.c.c.c.! *.} , ] l.k.< > > > , > , , , , } *.E c.c.c.c.c.c.c.c.c.c.c.c.c.c.c.c.c.c.c.c.c.c.",
"c.c.c.c.c.c.c.c.c.c.c.c.c.c.c.c.c.c.c.c.@.>. .1 ; 4 4 4 4 4 4 4 4 4 4 4 4 4 4 & , X.*.#.c.c.c.c.c.c.c.c.c.c.c.c.c.c.c.c.c.c.c.c.",
"c.c.c.c.c.c.c.c.c.c.c.c.c.c.c.c.c.c.c.c.#.*.| , ; 4   4 4 4 4 4 4 4 4 6 6 4 4 & , X.*.@.c.c.c.c.c.c.c.c.c.c.c.c.c.c.c.c.c.c.c.c.",
"c.c.c.c.c.c.c.c.c.c.c.c.c.c.c.c.c.c.c.c.@.*. ., &   4 4 4 4 4 4 4 4 5 z.x.x 4 & , X.*.@.c.c.c.c.c.c.c.c.c.c.c.c.c.c.c.c.c.c.c.c.",
"c.c.c.c.c.c.c.c.c.c.c.c.c.c.c.c.c.c.c.c.) *.} , ;   4 4 4 7 4 7 4 7 8 k.z.x 4 & > | %.o.c.c.c.c.c.c.c.c.c.c.c.c.c.c.c.c.c.c.c.c.",
"c.c.c.c.c.c.c.c.c.c.c.c.c.c.c.c.c.c.O.>.K , &   4 4 4 4 7 , , *.>.>.>.>.*.a 4 4 4 & , K >._ c.c.c.c.c.c.c.c.c.c.c.c.c.c.c.c.c.c.",
"c.c.c.c.c.c.c.c.c.c.c.c.c.c.c.c.c.c.) *.K , &   4 4 4 7 7 , , *.>.%.>.%.*.a 7 4 5 ; 1 L *._ c.c.c.c.c.c.c.c.c.c.c.c.c.c.c.c.c.c.",
"c.c.c.c.c.c.c.c.c.c.c.c.c.c.c.c.c.c.o.>.K , ; 7 r R R T [ , , Z Z Z Z C C ` [ r 5 0.d.w.*._ c.c.c.c.c.c.c.c.c.c.c.c.c.c.c.c.c.c.",
"c.c.c.c.c.c.c.c.c.c.c.c.c.c.c.c.c.c.) ,.K , ; 4 a *.*.*.*., , , , , , , ,  .*.a 4 u.x.t.*.) c.c.c.c.c.c.c.c.c.c.c.c.c.c.c.c.c.c.",
"c.c.c.c.c.c.c.c.c.c.c.c.c.c.c.c.W &.e.g.;.X u R T 3 C 3 C X X X X X X , , 3 3 o 4 g j S 3 L &.^ c.c.c.c.c.c.c.c.c.c.c.c.c.c.c.c.",
"c.c.c.c.c.c.c.c.c.c.c.c.c.c.c.c.^ >.t.x.2.4 a *.} , , , , 4 4 4 4 7 4 1 , , , X 4 4 4 @ , K *.^ c.c.c.c.c.c.c.c.c.c.c.c.c.c.c.c.",
"c.c.c.c.c.c.c.c.c.c.c.c.c.c.c.c.^ *.$.] s 4 a *.| , * X o ; ; 4 4 & & o X & , G R r 4 + , K *.^ c.c.c.c.c.c.c.c.c.c.c.c.c.c.c.c.",
"c.c.c.c.c.c.c.c.c.c.c.c.c.c.c.c.^ *.L , + 4 a *.| , &     , , 4 4 > , 4 4 ; , X.:.a 4 + , K *.^ c.c.c.c.c.c.c.c.c.c.c.c.c.c.c.c.",
"c.c.c.c.c.c.c.c.c.c.c.c.c.c.c.c.^ *.L , +   w K A + O 4 4 # @ 4 4 # + 4 4 ; , Z K w   + , K *.^ c.c.c.c.c.c.c.c.c.c.c.c.c.c.c.c.",
"c.c.c.c.c.c.c.c.c.c.c.c.c.c.c.c.^ *.K , # 4 o , & 4 4 4 4 4   4 4 4 4 4 7 & , , , X 4 + , K *.^ c.c.c.c.c.c.c.c.c.c.c.c.c.c.c.c.",
"c.c.c.c.c.c.c.c.c.c.c.c.c.c.@.:.' K M # o 4 9 # X   4 4 4 4 4 4 4 4 4 4 4 O + : , B I n + ) y.q.#.@.c.c.c.c.c.c.c.c.c.c.c.c.c.c.",
"c.c.c.c.c.c.c.c.c.c.c.c.c.c.:.*.K , + 4 4 4 4 4 4 4 4 4 4 7 4 4 4 4 4 4 4 4 4 & ,  .>.I 4 1.x.y.*.&.c.c.c.c.c.c.c.c.c.c.c.c.c.c.",
"c.c.c.c.c.c.c.c.c.c.c.c.c.c.:.*.4.7.Y 4 X # O 4 4 4 0 I I I I I I 4 4 4 4 4 4 & , | >.I 4 z 7.4.*.&.c.c.c.c.c.c.c.c.c.c.c.c.c.c.",
"c.c.c.c.c.c.c.c.c.c.c.c.c.c.&.*.y.x.2.4 + , ; 4 4 4 a *.>.>.>.>.&.4 4 4 4 4 4 & , | *.I   + > H *.&.c.c.c.c.c.c.c.c.c.c.c.c.c.c.",
"c.c.c.c.c.c.c.c.c.c.c.c.c.c.X.X.3.s.=.4 + , ; 4 8 a f | | | } } X.a p 4 4 4 4 $ & H | N   X % F X...c.c.c.c.c.c.c.c.c.c.c.c.c.c.",
"c.c.c.c.c.c.c.c.c.c.c.c.*.>.Z , u 4 4 4 # , & 4 a >. ., , , , , , *.*.4 4 4 4 4   & , + 4 4 4 + , Z *.>.c.c.c.c.c.c.c.c.c.c.c.c.",
"c.c.c.c.c.c.c.c.c.c.c.c.*.*.Z , + 4 . X # & $ 4 t  .L , , & & , , X.X.a a 8 4 4   ; , - a h c B , Z >.>.c.c.c.c.c.c.c.c.c.c.c.c.",
"c.c.c.c.c.c.c.c.c.c.c.c.*.*.3 , + 4 + , # 4 4 4 X , , , > 4 4 > , , , *.*.y 4 4   ; , K *.y.x.7., Z *.*.c.c.c.c.c.c.c.c.c.c.c.c.",
"c.c.c.c.c.c.c.c.c.c.c.c.*.*.Z , + 4 O & @ 4 8 p i , > & & 4 4 % ; & ; | } t 4 4   & , K *.q.i.@., Z *.*.c.c.c.c.c.c.c.c.c.c.c.c.",
"c.c.c.c.c.c.c.c.c.c.c.c.*.*.Z , + 4 4 4 4 4 p :.| , & 4 4 4 4 4 4 4 4 , > X 4 4   ; , L :.I 4 # , Z *.*.c.c.c.c.c.c.c.c.c.c.c.c.",
"c.c.c.c.c.c.c.c.c.c.c.c.*.*.Z , # 4 4 4 4 4 p :.| , & 4 4 4 4 4 4 4 7 > , o 4 4 7 ; , K >.U 4 + , Z *.*.c.c.c.c.c.c.c.c.c.c.c.c.",
"c.c.c.c.c.c.c.c.c.c.c.c.*.*.Z , 6.x.1.4 4 4 4 4 X , & 4 4 4 4 4 4 4 4 4 4 4 4 4 4 ; , K *.I 4 + , Z *.*.c.c.c.c.c.c.c.c.c.c.c.c.",
"c.c.c.c.c.c.c.c.c.c.c.c.*.*.Z , 6.x.1.4 4 4 4 4 X , & 4 4 4 4 4 4 4 4 4 4 4 4 4   ; , K *.I 7 # 2 Z *.*.c.c.c.c.c.c.c.c.c.c.c.c.",
"c.c.c.c.c.c.c.c.c.c.c.c.*.*.Z , # 7 4 4 4 4 X , , , %   4 4 4 4 4 , > 7   4 4 & , > , K *.I 4 1.x.f.&.*.c.c.c.c.c.c.c.c.c.c.c.c.",
"c.c.c.c.c.c.c.c.c.c.c.c.*.*.Z , # 4 4 4 4 4 X , > > % 4 4 4 4 4 4 , , 8 4 4 4 & , , , K *.I 4 2.z.f.*.*.c.c.c.c.c.c.c.c.c.c.c.c.",
"c.c.c.c.c.c.c.c.c.c.c.c.*.*.Z , # 4 # , # 4 X , &     4 4 4 4 4   , , *.*.a 4 4 4 ; , K *.I 4 # 1 F *.*.c.c.c.c.c.c.c.c.c.c.c.c.",
"c.c.c.c.c.c.c.c.c.c.c.c.*.*.Z , # 4 # , # 4 o , & 4 4 4 4 4 4 4 4 , 1 %.:.a 4 4   & , H *.I 4 + , Z *.*.c.c.c.c.c.c.c.c.c.c.c.c.",
"c.c.c.c.c.c.c.c.c.c.c.c.*.>.r.s.-.4 9 X   4 4 X . 4 4 4 4 4 4 4 4 , , *.*.a 4 4 4 ; , K *.I 4 + , Z *.*.c.c.c.c.c.c.c.c.c.c.c.c.",
"c.c.c.c.c.c.c.c.c.c.c.c.*.>.g.x.1.4 4 4 4 4 4 4 4   4 4 4 4 4 4 4 , , *.*.p 4 4 4 ; , K *.I 4 + , Z *.*.c.c.c.c.c.c.c.c.c.c.c.c.",
"c.c.c.c.c.c.c.c.c.c.c.c.&.*.X.] s 4 4 4 d T I 4 4   4 4 4 & & 4 4 , , *.*.a 4 4 4 ; , b a 0 4 + , Z >.*.c.c.c.c.c.c.c.c.c.c.c.c.",
"c.c.c.c.c.c.c.c.c.c.c.c.>.>.Z , # 4 4 4 I *.T 4 4 4 4 4 4 , , 4 4 , , *.*.p 4 4 4 ; , # 4 4 4 # , Z *.>.c.c.c.c.c.c.c.c.c.c.c.c.",
"c.c.c.c.c.c.c.c.c.c.c.c.c.c...X.A & O 4 I %.| & # 4 w T T 1 , & & , , a a 8 4 $ ; H | N 4 O & A X...c.c.c.c.c.c.c.c.c.c.c.c.c.c.",
"c.c.c.c.c.c.c.c.c.c.c.c.c.c.:.*.K , # 4 I %.| 1 & 4 a >.>.> , , , , , 4   4 4 ; , X.:.S 4 + , K &.&.c.c.c.c.c.c.c.c.c.c.c.c.c.c.",
"c.c.c.c.c.c.c.c.c.c.c.c.c.c.&.*.K , # 4 a I U K V 4 0 I I K K , , K K 4 4 4 4 ; , | >.I 4 + , L >.&.c.c.c.c.c.c.c.c.c.c.c.c.c.c.",
"c.c.c.c.c.c.c.c.c.c.c.c.c.c.&.&.K , + 4 4 4 p >.T 4 4 4 7 >.%.1 1 >.%.7 4 4 4 ; , | >.I 4 + , K >.#.c.c.c.c.c.c.c.c.c.c.c.c.c.c.",
"c.c.c.c.c.c.c.c.c.c.c.c.c.c.@.#.` K ( 1.j 4 a >.T 4 4 4 4 I I # $ I I 4 4 O + A K D I -.1.( K ' @._ c.c.c.c.c.c.c.c.c.c.c.c.c.c.",
"c.c.c.c.c.c.c.c.c.c.c.c.c.c.c.c.^ >.a.x.1.7 a *.T 4 4 4 4 4 4 4 4 4 4 4 4 & , | >.a 4 2.x.t.>.^ c.c.c.c.c.c.c.c.c.c.c.c.c.c.c.c.",
"c.c.c.c.c.c.c.c.c.c.c.c.c.c.c.c.^ *.4.8.Y 4 a *.{ + O 4 4 4 4 4 4 4 4 4 4 O + N I 0 4 Y 8.4.>.^ c.c.c.c.c.c.c.c.c.c.c.c.c.c.c.c.",
"c.c.c.c.c.c.c.c.c.c.c.c.c.c.c.c.^ *.K , # 4 a *. ., & 4 4 4 4 4 4 4 4 4 4 4 4 4 4 4 4 + , K >.^ c.c.c.c.c.c.c.c.c.c.c.c.c.c.c.c.",
"c.c.c.c.c.c.c.c.c.c.c.c.c.c.c.c.^ >.K , + 4 a *.| , & 7 4 X X 7 4 X X p p 5 4 4 4 4 4 + , L *.^ c.c.c.c.c.c.c.c.c.c.c.c.c.c.c.c.",
"c.c.c.c.c.c.c.c.c.c.c.c.c.c.c.c.^ >.K , + 4 a *.| , & 4 4 , > 4 4 1 , *.&.r   4 4 4 4 + , L *.^ c.c.c.c.c.c.c.c.c.c.c.c.c.c.c.c.",
"c.c.c.c.c.c.c.c.c.c.c.c.c.c.c.c.W #.J C = X u T ` C m X X & & X X , , [ T q 4 4 4 . o - 3 J #.W c.c.c.c.c.c.c.c.c.c.c.c.c.c.c.c.",
"c.c.c.c.c.c.c.c.c.c.c.c.c.c.c.c.c.c.) *.K , & 7 a %.| 1 > 7 7 > , , , 7 4 4 4 4 4 & , L *.^ c.c.c.c.c.c.c.c.c.c.c.c.c.c.c.c.c.c.",
"c.c.c.c.c.c.c.c.c.c.c.c.c.c.c.c.c.c.3.9.} , ; 4 r R ` C C w X C C 3 3 4 4 4 4 4   ; , K *.O.c.c.c.c.c.c.c.c.c.c.c.c.c.c.c.c.c.c.",
"c.c.c.c.c.c.c.c.c.c.c.c.c.c.c.c.c.c.j.x.6., ; 4 4 7 a >.%., > %.*.*.*.8 4 4 4 4 4 ; , K *.O.c.c.c.c.c.c.c.c.c.c.c.c.c.c.c.c.c.c.",
"c.c.c.c.c.c.c.c.c.c.c.c.c.c.c.c.c.c.j.x.7., ; 4 4 4 a :.*.1 1 >.>.>.*.5 4 4 4 4 7 & , K ,.O.c.c.c.c.c.c.c.c.c.c.c.c.c.c.c.c.c.c.",
"c.c.c.c.c.c.c.c.c.c.c.c.c.c.c.c.c.c.c.c.@.*.| , & 4 4 7 4 4 7 7 7 4 4   4 u.l.] , } *.^ c.c.c.c.c.c.c.c.c.c.c.c.c.c.c.c.c.c.c.c.",
"c.c.c.c.c.c.c.c.c.c.c.c.c.c.c.c.c.c.c.c.@.*. ., % 4 4 4 4 4 4   4 4 4 4 4 u.x.] , X.&./ c.c.c.c.c.c.c.c.c.c.c.c.c.c.c.c.c.c.c.c.",
"c.c.c.c.c.c.c.c.c.c.c.c.c.c.c.c.c.c.c.c.@.*.X., % 4   4 4 4 4 4 5 l.l.5 4 5 6 ; , X.*./ c.c.c.c.c.c.c.c.c.c.c.c.c.c.c.c.c.c.c.c.",
"c.c.c.c.c.c.c.c.c.c.c.c.c.c.c.c.c.c.c.c.:.*.X., ; 4   4 4 4 4 4 6 z.z.5 4 4 4 ; , X.*._ c.c.c.c.c.c.c.c.c.c.c.c.c.c.c.c.c.c.c.c.",
"c.c.c.c.c.c.c.c.c.c.c.c.c.c.c.c.c.c.c.c.c.c.! *.9.l.s.> > * , , > 2 2 < 1 , < | %.v c.c.c.c.c.c.c.c.c.c.c.c.c.c.c.c.c.c.c.c.c.c.",
"c.c.c.c.c.c.c.c.c.c.c.c.c.c.c.c.c.c.c.c.c.c.v >.w.x.s., , , , , , , , , , , , | *.k c.c.c.c.c.c.c.c.c.c.c.c.c.c.c.c.c.c.c.c.c.c.",
"c.c.c.c.c.c.c.c.c.c.c.c.c.c.c.c.c.c.c.c.c.c.c.c.c.<.>.*.%.*.%.%.%.%.*.*.%.%.*.c.c.c.c.c.c.c.c.c.c.c.c.c.c.c.c.c.c.c.c.c.c.c.c.c.",
"c.c.c.c.c.c.c.c.c.c.c.c.c.c.c.c.c.c.c.c.c.c.c.c.c.>.*.*.*.*.*.*.*.*.*.*.*.*.*.c.c.c.c.c.c.c.c.c.c.c.c.c.c.c.c.c.c.c.c.c.c.c.c.c.",
"c.c.c.c.c.c.c.c.c.c.c.c.c.c.c.c.c.c.c.c.c.c.c.c.c.c.c.c.c.c.c.c.c.c.c.c.c.c.c.c.c.c.c.c.c.c.c.c.c.c.c.c.c.c.c.c.c.c.c.c.c.c.c.c."
};
