/* XPM */
static char *result[] = {
/* columns rows colors chars-per-pixel */
"64 64 141 2 ",
"   c #128E3F",
".  c #12943F",
"X  c #159C3E",
"o  c #17A43C",
"O  c #18A53D",
"+  c #19AF3B",
"@  c #1BBB37",
"#  c #1AB03B",
"$  c #1CBB39",
"%  c #1EC735",
"&  c #1FD232",
"*  c #20CF34",
"=  c #27CA3F",
"-  c #20D233",
";  c #23DB32",
":  c #2FDB3F",
">  c #24E62E",
",  c #24EA2C",
"<  c #27E731",
"1  c #26EA30",
"2  c #2BEA33",
"3  c #34EE3D",
"4  c #128D41",
"5  c #198F46",
"6  c #198F48",
"7  c #139042",
"8  c #199247",
"9  c #159840",
"0  c #1F9B4A",
"q  c #1CA743",
"w  c #21A747",
"e  c #25A24E",
"r  c #26A84C",
"t  c #26BD42",
"y  c #29B34A",
"u  c #2ABB48",
"i  c #30BF4C",
"p  c #2AA751",
"a  c #2CAA52",
"s  c #38BE53",
"d  c #35B458",
"f  c #3BBE5A",
"g  c #3BA162",
"h  c #3FA962",
"j  c #4BA86F",
"k  c #5EB264",
"l  c #50BF6A",
"z  c #4FAA72",
"x  c #50A972",
"c  c #63BC6A",
"v  c #28CA40",
"b  c #31C04D",
"n  c #2FDB40",
"m  c #32D645",
"M  c #33DC44",
"N  c #3AC256",
"B  c #3BCA50",
"V  c #37EE40",
"C  c #39EE42",
"Z  c #3FE34E",
"A  c #43C45F",
"S  c #42CA58",
"D  c #46D05E",
"F  c #40F04A",
"G  c #4BEE56",
"H  c #51EC5B",
"J  c #4CF256",
"K  c #4FF359",
"L  c #52F35B",
"P  c #44C461",
"I  c #54C06D",
"U  c #50D267",
"Y  c #58D669",
"T  c #5BDE6F",
"R  c #5CDE71",
"E  c #65C16D",
"W  c #66CE6E",
"Q  c #6AC872",
"!  c #65C47F",
"~  c #69D672",
"^  c #6DDC76",
"/  c #67DA79",
"(  c #6EDE79",
")  c #70DF7A",
"_  c #54E363",
"`  c #59E662",
"'  c #5CEE62",
"]  c #5DF467",
"[  c #5EF569",
"{  c #5FF86A",
"}  c #60EE6B",
"|  c #62F56C",
" . c #63E675",
".. c #6CE177",
"X. c #6EE079",
"o. c #6FEB7A",
"O. c #72E47C",
"+. c #71EC7B",
"@. c #66F670",
"#. c #69F774",
"$. c #6FF97A",
"%. c #73F57E",
"&. c #73F97E",
"*. c #6BC284",
"=. c #78CF8D",
"-. c #74F580",
";. c #74F980",
":. c #7BF985",
">. c #7DF988",
",. c #86C39D",
"<. c #89C59F",
"1. c #8ADE91",
"2. c #84F68C",
"3. c #8FEA9B",
"4. c #8FF394",
"5. c #91F395",
"6. c #96F49B",
"7. c #95FA9E",
"8. c #9ADCA7",
"9. c #9AECA3",
"0. c #9BFAA3",
"q. c #ABF5B2",
"w. c #AFF8B4",
"e. c #B6FABC",
"r. c #B9FBBF",
"t. c #BDDEC9",
"y. c #BFE0CB",
"u. c #BEF5C2",
"i. c #BBFBC1",
"p. c #C4F8C7",
"a. c #CAF9CC",
"s. c #D7FCDB",
"d. c #DBFCDD",
"f. c #DFE1E0",
"g. c #E1E2E2",
"h. c #EFF8F1",
"j. c #F1F7F3",
"k. c #F4F9F6",
"l. c #F7FCF9",
"z. c #FBFDFB",
"x. c None",
/* pixels */
"x.x.x.x.x.x.x.x.x.x.x.x.x.x.x.x.x.x.x.x.x.x.x.x.x.x.x.x.x.x.x.x.x.x.x.x.x.x.x.x.x.x.x.x.x.x.x.x.x.x.x.x.x.x.x.x.x.x.x.x.x.x.x.x.",
"x.x.x.x.x.x.x.x.x.x.x.x.x.x.x.x.x.x.x.x.x.x.x.x.x.;.&.&.&.&.&.&.&.&.&.&.&.&.;.x.x.x.x.x.x.x.x.x.x.x.x.x.x.x.x.x.x.x.x.x.x.x.x.x.",
"x.x.x.x.x.x.x.x.x.x.x.x.x.x.x.x.x.x.x.x.x.x.x.x.x.&.&.:.:.$.$.$.$.$.$.$.$.$.&.E x.x.x.x.x.x.x.x.x.x.x.x.x.x.x.x.x.x.x.x.x.x.x.x.",
"x.x.x.x.x.x.x.x.x.x.x.x.x.x.x.x.x.x.x.x.x.x.x.&.] , ] z.l.1 , , , , , , , , , { ;.E x.x.x.x.x.x.x.x.x.x.x.x.x.x.x.x.x.x.x.x.x.x.",
"x.x.x.x.x.x.x.x.x.x.x.x.x.x.x.x.x.x.x.x.x.x.Q &.] , ' k.h.< > > , > , > , , > ] &.E x.x.x.x.x.x.x.x.x.x.x.x.x.x.x.x.x.x.x.x.x.x.",
"x.x.x.x.x.x.x.x.x.x.x.x.x.x.x.x.x.x.x.x.O.;.{ 1 - 4 4 4 4 4 4 4 4 4 4 4 4 4 4 & , { &.O.x.x.x.x.x.x.x.x.x.x.x.x.x.x.x.x.x.x.x.x.",
"x.x.x.x.x.x.x.x.x.x.x.x.x.x.x.x.x.x.x.x.+.%.] , - 4 4 4 4 4 4 4 4 4 4 6 8 7 4 & , | &.O.x.x.x.x.x.x.x.x.x.x.x.x.x.x.x.x.x.x.x.x.",
"x.x.x.x.x.x.x.x.x.x.x.x.x.x.x.x.x.x.x.x.O.&.{ , -     4 4 4 4 4 4 4 5 l.z.z 4 & , | &.O.x.x.x.x.x.x.x.x.x.x.x.x.x.x.x.x.x.x.x.x.",
"x.x.x.x.x.x.x.x.x.x.x.x.x.x.x.x.x.x.x.x.( &.] > &   4 4 4 4 4 4 4 4 4 j.k.z 4 & < ] %...x.x.x.x.x.x.x.x.x.x.x.x.x.x.x.x.x.x.x.x.",
"x.x.x.x.x.x.x.x.x.x.x.x.x.x.x.x.x.x.X.;.J , -   4 4 4 4 4 4 4 4 4 4 4 4 4 4 4 4 4 & , J ;.) x.x.x.x.x.x.x.x.x.x.x.x.x.x.x.x.x.x.",
"x.x.x.x.x.x.x.x.x.x.x.x.x.x.x.x.x.x...;.J , - . 4 4 4 7 4 4 4 4 4 4 4 4 7 4 4 4 7 * 1 J ;.( x.x.x.x.x.x.x.x.x.x.x.x.x.x.x.x.x.x.",
"x.x.x.x.x.x.x.x.x.x.x.x.x.x.x.x.x.x.( ;.J , - 7 4 4 e R R R R R R R R R _ e 4 4 6 8.a.0.&.( x.x.x.x.x.x.x.x.x.x.x.x.x.x.x.x.x.x.",
"x.x.x.x.x.x.x.x.x.x.x.x.x.x.x.x.x.x.X.:.J , & 4 4 4 p &.&.&.&.&.;.&.&.;.;.a 7 4 4 t.z.e.&.^ x.x.x.x.x.x.x.x.x.x.x.x.x.x.x.x.x.x.",
"x.x.x.x.x.x.x.x.x.x.x.x.x.x.x.x.W +.q.d.=.o X 4 e R _ V V 3 V C C C C ;.;. .T e 4 g z N 3 H %.W x.x.x.x.x.x.x.x.x.x.x.x.x.x.x.x.",
"x.x.x.x.x.x.x.x.x.x.x.x.x.x.x.x.~ ;.i.l.<.4 4 4 p ;.[ > , , , , , , , $.;.;.;.a 5 4 4 @ , J &.~ x.x.x.x.x.x.x.x.x.x.x.x.x.x.x.x.",
"x.x.x.x.x.x.x.x.x.x.x.x.x.x.x.x.~ &.@.' s 4 e R _ V n o X o o X o , , C C | ;. .R e 4 @ , J &.~ x.x.x.x.x.x.x.x.x.x.x.x.x.x.x.x.",
"x.x.x.x.x.x.x.x.x.x.x.x.x.x.x.x.~ &.J , @   a &.] , & 4 4 4 4 4 4 , , , , | ;.&.&.p 4 @ , J &.~ x.x.x.x.x.x.x.x.x.x.x.x.x.x.x.x.",
"x.x.x.x.x.x.x.x.x.x.x.x.x.x.x.x.~ &.J , @ 4 w J Z $ + 4 4 4 4 4 4 $ @ , , C J #.&.p 4 @ , J &.~ x.x.x.x.x.x.x.x.x.x.x.x.x.x.x.x.",
"x.x.x.x.x.x.x.x.x.x.x.x.x.x.x.x.^ &.J , @ 4 o , & 4 4 4 4 4 4 4 4 4 4 , , , , | &.p 4 @ , J &.~ x.x.x.x.x.x.x.x.x.x.x.x.x.x.x.x.",
"x.x.x.x.x.x.x.x.x.x.x.x.x.x.O.O.` J m $ o 4 9 $ + 4 4 4 4 4 4 4 4 4 4 $ @ ; , C J D P b @ ( i.9.+.O.x.x.x.x.x.x.x.x.x.x.x.x.x.x.",
"x.x.x.x.x.x.x.x.x.x.x.x.x.x.-.&.G > $ 4 4 4 4 4 4 4 4 4 4 4 4 4 4 4 4 4 4 - , , , | ;.P 4 ,.z.e.&.%.x.x.x.x.x.x.x.x.x.x.x.x.x.x.",
"x.x.x.x.x.x.x.x.x.x.x.x.x.x.-.&.2.5.l 4 4 4 4 4 4 4 0 P P P P 4 4 $ $ P P t @ < , F J b 4 l 5.2.&.-.x.x.x.x.x.x.x.x.x.x.x.x.x.x.",
"x.x.x.x.x.x.x.x.x.x.x.x.x.x.%.&.r.z.,.4 4 4   4 4 4 a ;.;.;.;.4 4 , , &.;.p 4 & , , , @ 4 @ , J &.%.x.x.x.x.x.x.x.x.x.x.x.x.x.x.",
"x.x.x.x.x.x.x.x.x.x.x.x.x.x.| | 3.p.*.o . 4 4 4 8 a f { ] ] ] 4 4 , , &.;.f a - , 3 C v 4 + - Z | } x.x.x.x.x.x.x.x.x.x.x.x.x.x.",
"x.x.x.x.x.x.x.x.x.x.x.x.&.&.C , # 4 $ < @ 4 4 4 p %.| , , , , 7 4 , 1 $.;.;.;.V , ] ;.P 4 4 4 $ , C &.;.x.x.x.x.x.x.x.x.x.x.x.x.",
"x.x.x.x.x.x.x.x.x.x.x.x.&.&.C , $ 4 + * + 4 4 4 r | L , , & & 4 4 - & [ [ $.;.V , K { D a h x B , C &.&.x.x.x.x.x.x.x.x.x.x.x.x.",
"x.x.x.x.x.x.x.x.x.x.x.x.&.&.3 , $ 4 4 4 4 4 4 4 o , , , > 4 4 4 4 4 7 > 1 [ ;.V , , , J &.e.z.5., C &.&.x.x.x.x.x.x.x.x.x.x.x.x.",
"x.x.x.x.x.x.x.x.x.x.x.x.&.&.C , @ 4 4 4 X O X 4 X - - - & o o 4 4 4 7 , , ] ;.M & > , J ;.9.y.O., C &.&.x.x.x.x.x.x.x.x.x.x.x.x.",
"x.x.x.x.x.x.x.x.x.x.x.x.&.&.C , $ 4 4 4 $ > - 4   4 4   4 > ,   4     , , | ;.p 4 - , J ;.P 4 $ , C &.&.x.x.x.x.x.x.x.x.x.x.x.x.",
"x.x.x.x.x.x.x.x.x.x.x.x.&.&.C , $ 5 4 4 $ , -   4   4 4 7 > >   4 4 7 > , [ ;.a . - , J &.P 7 $ , C &.&.x.x.x.x.x.x.x.x.x.x.x.x.",
"x.x.x.x.x.x.x.x.x.x.x.x.&.&.C , 5.l.,.4 P &.| > - 4 4 4   4 4 4 4 4 7 , , { ;.p 4 - , , , K &.J , C &.&.x.x.x.x.x.x.x.x.x.x.x.x.",
"x.x.x.x.x.x.x.x.x.x.x.x.&.&.C , 4.z.,.4 P -.| , - 4   4 4 4 4 4 4 4 4 , 1 ] &.p 7 - , , , J &.J 2 C &.&.x.x.x.x.x.x.x.x.x.x.x.x.",
"x.x.x.x.x.x.x.x.x.x.x.x.&.&.C , $ 6 4 4 A &.{ , % 4 4 4 4   4 4   4   > , , , ] &.a 4 @ , J &.e.l.s.&.&.x.x.x.x.x.x.x.x.x.x.x.x.",
"x.x.x.x.x.x.x.x.x.x.x.x.&.&.C , @ 4 4 7 A &.] , &   4 4 4 4 4 4 4 4   ; , , , [ &.p 4 @ , J &.e.l.s.;.&.x.x.x.x.x.x.x.x.x.x.x.x.",
"x.x.x.x.x.x.x.x.x.x.x.x.&.&.C , @ 4 $ , , , , , & 4   4 4 4   4 4 4 4   7 & 1 ] &.a 4 $ , J &.L 2 C &.&.x.x.x.x.x.x.x.x.x.x.x.x.",
"x.x.x.x.x.x.x.x.x.x.x.x.&.&.C , @ 4 @ , , , , , & 4 4 4 4 4 4 4 4   4 4 4 - 1 ] &.a 4 @ , J &.J , C &.&.x.x.x.x.x.x.x.x.x.x.x.x.",
"x.x.x.x.x.x.x.x.x.x.x.x.&.&.w.p.*.4 X o % , , , & 4 X & & 4 4 4 4 4 4 4 4 & , 3 C q 4 N | D a v , C &.&.x.x.x.x.x.x.x.x.x.x.x.x.",
"x.x.x.x.x.x.x.x.x.x.x.x.&.;.d.z.<.4 4 4 @ , , , & 4 o > > 4 4 4 4 4 4 4 7 & , , , o 4 P &.P 4 @ , C &.&.x.x.x.x.x.x.x.x.x.x.x.x.",
"x.x.x.x.x.x.x.x.x.x.x.x.&.&.| ' s 4 4 4 N ] K , > & % o o   4 4 4 4 4 & & > , , , o 4 P &.P 4 @ , C &.&.x.x.x.x.x.x.x.x.x.x.x.x.",
"x.x.x.x.x.x.x.x.x.x.x.x.;.%.C , @ 4 4 4 P ;.] , , , & 4 4 4 4 4 4 4 4 , , , , , , O 4 P ;.P 4 $ 1 C &.&.x.x.x.x.x.x.x.x.x.x.x.x.",
"x.x.x.x.x.x.x.x.x.x.x.x.x.x.} | F * + 4 0 p f ] L , > & & 4 4 4   & & , , K { u q .   0 p t & Z | } x.x.x.x.x.x.x.x.x.x.x.x.x.x.",
"x.x.x.x.x.x.x.x.x.x.x.x.x.x.%.&.G > @ 4 4 4 p &.] , , , < 4 4 4 4 , , , 1 | ;.p 4 4 4 4 4 @ , J &.&.x.x.x.x.x.x.x.x.x.x.x.x.x.x.",
"x.x.x.x.x.x.x.x.x.x.x.x.x.x.%.&.G , @ 4 4 4 p &.#.J J G G 7 4 @ @ J J J J B P 0 4 d N p 4 @ , J &.%.x.x.x.x.x.x.x.x.x.x.x.x.x.x.",
"x.x.x.x.x.x.x.x.x.x.x.x.x.x.+.;.J , @   4 4 p &.&.;.&.;.%.4   , , $.;.$.;.p 4 4 4 T ;.P 4 @ , J &.:.x.x.x.x.x.x.x.x.x.x.x.x.x.x.",
"x.x.x.x.x.x.x.x.x.x.x.x.x.x.^ ( H J / ,.z 4 0 P A A U &.&.5 4 G J P P P P u @ $ $ N P *.,./ J ` O.O.x.x.x.x.x.x.x.x.x.x.x.x.x.x.",
"x.x.x.x.x.x.x.x.x.x.x.x.x.x.x.x.~ ;.i.z.,.4 4 4 4 4 p ;.&.4 4 %.;.7 4 4 4 & 1 1 , q 4 <.z.i.;.~ x.x.x.x.x.x.x.x.x.x.x.x.x.x.x.x.",
"x.x.x.x.x.x.x.x.x.x.x.x.x.x.x.x.~ -.2.6.Y $ + 4 4 4 0 P P 4 4 P P 4 4 4 4 & 1 C J q 4 I 7.2.;.~ x.x.x.x.x.x.x.x.x.x.x.x.x.x.x.x.",
"x.x.x.x.x.x.x.x.x.x.x.x.x.x.x.x.~ -.J , , 1 & 4 4 4 4 4 4 4 4   4 4 4 4 4 & > { $.p 4 @ , J ;.~ x.x.x.x.x.x.x.x.x.x.x.x.x.x.x.x.",
"x.x.x.x.x.x.x.x.x.x.x.x.x.x.x.x.~ ;.J , 2 C : O O o o 4 4 4 4 4 4 4 4 o o M C @.&.p 4 @ , J &.~ x.x.x.x.x.x.x.x.x.x.x.x.x.x.x.x.",
"x.x.x.x.x.x.x.x.x.x.x.x.x.x.x.x.~ &.J , J %.] , , , & 4   4 4 4 4 4   1 , { &.;.&.p 4 @ , J ;.~ x.x.x.x.x.x.x.x.x.x.x.x.x.x.x.x.",
"x.x.x.x.x.x.x.x.x.x.x.x.x.x.x.x.W o.H C J | L C 3 , - o o o O O o o o V C | &. .R y o = C H +.W x.x.x.x.x.x.x.x.x.x.x.x.x.x.x.x.",
"x.x.x.x.x.x.x.x.x.x.x.x.x.x.x.x.x.x.^ &.J , C &.] , , , , , , , , , 1 $.&.&.&.a 5 - , J &.^ x.x.x.x.x.x.x.x.x.x.x.x.x.x.x.x.x.x.",
"x.x.x.x.x.x.x.x.x.x.x.x.x.x.x.x.x.x.1.7.{ , C &.| 3 3 C 3 3 3 C 3 V V &.&. .R e 4 & , J &.) x.x.x.x.x.x.x.x.x.x.x.x.x.x.x.x.x.x.",
"x.x.x.x.x.x.x.x.x.x.x.x.x.x.x.x.x.x.g.z.4., C &.&.&.&.&.&.&.&.&.&.&.&.&.&.p 4 4 4 & , J &.^ x.x.x.x.x.x.x.x.x.x.x.x.x.x.x.x.x.x.",
"x.x.x.x.x.x.x.x.x.x.x.x.x.x.x.x.x.x.g.z.4., C &.&.&.&.&.&.&.&.&.;.;.;.;.;.p 4 4 7 & , J ;.O.x.x.x.x.x.x.x.x.x.x.x.x.x.x.x.x.x.x.",
"x.x.x.x.x.x.x.x.x.x.x.x.x.x.x.x.x.x.x.x.O.&.{ 1 - 8 a &.&.&.&.&.&.7 5 4 7 t.k.' , ] &.^ x.x.x.x.x.x.x.x.x.x.x.x.x.x.x.x.x.x.x.x.",
"x.x.x.x.x.x.x.x.x.x.x.x.x.x.x.x.x.x.x.x.O.&.{ , & 7 p &.;.&.&.&.;.4 4 4 5 t.z.' , | &.O.x.x.x.x.x.x.x.x.x.x.x.x.x.x.x.x.x.x.x.x.",
"x.x.x.x.x.x.x.x.x.x.x.x.x.x.x.x.x.x.x.x.O.&.{ , & 4 4 4 7 4 5 4 6 j.j.6 4 5 8 & , | &.O.x.x.x.x.x.x.x.x.x.x.x.x.x.x.x.x.x.x.x.x.",
"x.x.x.x.x.x.x.x.x.x.x.x.x.x.x.x.x.x.x.x.O.;.| , & 4 4 4 4 5 4 4 5 l.l.6 4 4 4 & , | &.O.x.x.x.x.x.x.x.x.x.x.x.x.x.x.x.x.x.x.x.x.",
"x.x.x.x.x.x.x.x.x.x.x.x.x.x.x.x.x.x.x.x.x.x.E &.7.k.u.1 > > > , , 2 2 > 1 1 < ] &.c x.x.x.x.x.x.x.x.x.x.x.x.x.x.x.x.x.x.x.x.x.x.",
"x.x.x.x.x.x.x.x.x.x.x.x.x.x.x.x.x.x.x.x.x.x.k ;.0.z.p., , , , , , , , , , , , ] &.c x.x.x.x.x.x.x.x.x.x.x.x.x.x.x.x.x.x.x.x.x.x.",
"x.x.x.x.x.x.x.x.x.x.x.x.x.x.x.x.x.x.x.x.x.x.x.x.x.>.:.$.$.&.$.&.$.$.&.&.$.$.$.x.x.x.x.x.x.x.x.x.x.x.x.x.x.x.x.x.x.x.x.x.x.x.x.x.",
"x.x.x.x.x.x.x.x.x.x.x.x.x.x.x.x.x.x.x.x.x.x.x.x.x.;.&.&.&.&.&.&.&.&.&.&.;.&.;.x.x.x.x.x.x.x.x.x.x.x.x.x.x.x.x.x.x.x.x.x.x.x.x.x.",
"x.x.x.x.x.x.x.x.x.x.x.x.x.x.x.x.x.x.x.x.x.x.x.x.x.x.x.x.x.x.x.x.x.x.x.x.x.x.x.x.x.x.x.x.x.x.x.x.x.x.x.x.x.x.x.x.x.x.x.x.x.x.x.x."
};
